<ttFont>
<head>
    <!-- Most of this table will be recalculated by the compiler -->
    <tableVersion value="1.0"/>
    <fontRevision value="0.0"/>
    <checkSumAdjustment value="0x99ba7feb"/>
    <magicNumber value="0x5f0f3cf5"/>
    <flags value="00000000 00000011"/>
    <unitsPerEm value="2048"/>
    <created value="Thu May  4 15:33:44 2017"/>
    <modified value="Thu May  4 22:33:48 2017"/>
    <xMin value="-62"/>
    <yMin value="-595"/>
    <xMax value="1688"/>
    <yMax value="2323"/>
<macStyle value="00000000 00000010"/>
    <lowestRecPPEM value="3"/>
    <fontDirectionHint value="2"/>
    <indexToLocFormat value="0"/>
    <glyphDataFormat value="0"/>
  </head>
          <CharString index="0">
            1274 535 rmoveto
            -22 callsubr
            236 callgsubr
            -298 205 -207 293 316 203 196 368 66 vhcurveto
            -571 -348 rmoveto
            -166 -103 117 189 57 4 46 11 62 hvcurveto
            38 218 rlineto
            256 46 111 124 171 155 callsubr
            -259 -46 -111 -129 -173 hhcurveto
            return
          </CharString>
          <CharString index="1">
            rmoveto
            -82 -26 -90 -52 -113 hhcurveto
            -152 -92 99 152 11 hvcurveto
            8 6 52 4 17 vhcurveto
            725 hlineto
            15 100 rlineto
            4 21 7 62 27 vvcurveto
            239 16 -182 177 -263 hhcurveto
            -273 -199 -164 -261 -44 hvcurveto
            77 callsubr
            -11 -69 -5 -43 -47 vvcurveto
            -262 170 -162 274 245 193 131 188 33 vhcurveto
            -658 350 rmoveto
            10 55 rlineto
            146 31 103 86 142 hhcurveto
            144 89 199 callsubr
          </CharString>
          <CharString index="2">
            rmoveto
            -7 -41 -3 -35 -34 vvcurveto
            -283 201 -182 299 286 201 177 304 55 vhcurveto
            177 991 196 callsubr
            -170 -956 rlineto
            -187 -34 -114 -111 -154 hhcurveto
            -154 -110 100 167 23 4 37 6 34 hvcurveto
            158 893 rlineto
            -242 hlineto
            return
          </CharString>
          <CharString index="3">
            rmoveto
            134 callgsubr
            644 122 callgsubr
            -887 -99 callgsubr
            887 hlineto
            return
          </CharString>
          <CharString index="4">
            rmoveto
            282 619 rlineto
            10 hlineto
            60 -619 rlineto
            -164 872 rmoveto
            -69 callgsubr
            173 379 rlineto
            458 hlineto
            37 -379 rlineto
            -57 callsubr
            return
          </CharString>
          <CharString index="5">
            257 -393 rmoveto
            239 120 86 282 147 hvcurveto
            589 1120 rlineto
            -255 hlineto
            -420 -874 rlineto
            -15 hlineto
            -116 874 rlineto
            -248 hlineto
            201 -1103 -24 -49 rlineto
            -109 -55 -58 -35 -104 hhcurveto
            -30 -28 1 2 -7 hvcurveto
            -33 -193 rlineto
            -1 10 47 -1 40 hhcurveto
            return
          </CharString>
          <CharString index="6">
            105 callgsubr
            -296 hlineto
            184 1027 rlineto
            296 hlineto
            105 callgsubr
            -834 hlineto
            -35 -208 rlineto
            297 hlineto
            -184 -1027 rlineto
            -297 hlineto
            -35 -208 rlineto
            return
          </CharString>
          <CharString index="7">
            233 hlineto
            114 645 rlineto
            168 30 112 100 139 hhcurveto
            126 77 -82 -117 -29 -3 -33 -6 -36 -3 callgsubr
            636 rlineto
            11 60 4 37 42 vvcurveto
            203 -131 139 -210 -155 -120 -82 -124 -56 vhcurveto
            -14 hlineto
            32 184 rlineto
            -225 hlineto
            return
          </CharString>
          <CharString index="8">
            258 1049 rmoveto
            -6 -17 -5 -21 -3 -21 rrcurveto
            248 hlineto
            3 9 2 7 3 11 rrcurveto
            157 55 110 79 151 hhcurveto
            176 110 -115 -200 -30 -3 -37 -5 -40 hvcurveto
            -507 hlineto
            -34 -199 rlineto
            509 hlineto
            -5 -23 -9 -43 -6 -20 rrcurveto
            -230 -59 -127 -126 -181 hhcurveto
            -170 -101 99 166 -1 hvcurveto
            16 1 11 1 11 vhcurveto
            -246 hlineto
            -2 -20 0 -21 -8 vvcurveto
            -288 196 -185 318 309 209 175 328 86 vhcurveto
            13 36 35 196 8 44 rrcurveto
            13 73 5 60 59 vvcurveto
            328 -200 204 -323 -283 -210 -154 -271 -75 vhcurveto
            return
          </CharString>
          <CharString index="9">
            rmoveto
            49 280 rlineto
            -458 hlineto
            -30 -174 207 callgsubr
            -132 -747 rlineto
            -213 hlineto
            -31 -174 rlineto
            763 hlineto
            31 174 rlineto
            -327 hlineto
            56 319 rlineto
            244 44 153 142 221 hhcurveto
            82 67 -15 -31 50 hvcurveto
            44 250 rlineto
            26 -46 -60 15 -66 hhcurveto
            -191 -134 -104 -205 -71 hvcurveto
            endchar
          </CharString>
          <CharString index="10">
            828 -30 rmoveto
            262 166 181 368 79 hvcurveto
            6 26 28 145 5 30 rrcurveto
            16 94 6 85 81 vvcurveto
            312 -142 180 -244 -236 -169 -186 -333 -72 vhcurveto
            -4 -15 -18 -91 -2 -16 rrcurveto
            -136 hlineto
            108 612 rlineto
            -190 -99 callgsubr
            190 hlineto
            111 620 230 callsubr
            -9 -58 -2 -36 -70 vvcurveto
            -296 144 -190 221 vhcurveto
            367 984 rmoveto
            -62 -7 -79 -11 -65 vhcurveto
            -3 -21 -25 -139 -5 -18 rrcurveto
            -255 -52 -96 -128 -142 hhcurveto
            -123 -75 110 190 76 5 59 16 86 hvcurveto
            4 23 26 135 5 19 rrcurveto
            243 51 94 128 138 hhcurveto
            126 74 -112 -190 hvcurveto
            return
          </CharString>
          <CharString index="11">
            rmoveto
            315 202 195 369 66 hvcurveto
            33 187 rlineto
            15 79 8 76 83 vvcurveto
            100 -26 90 -50 83 vhcurveto
            0 2 9 1 vvcurveto
            27 hlineto
            130 -6 93 71 36 131 8 18 23 143 15 77 rrcurveto
            -189 hlineto
            -27 -150 rlineto
            -83 -15 -50 -43 -80 -149 -47 71 -199 hhcurveto
            -308 -209 54 callgsubr
            -53 -4 -58 -99 vvcurveto
            -298 203 -207 292 vhcurveto
            16 216 rmoveto
            -164 -105 119 187 53 4 45 11 67 hvcurveto
            39 218 rlineto
            255 46 110 125 170 hhcurveto
            164 106 -118 -183 -58 -4 -43 -10 -55 108 callgsubr
            -109 -127 -172 hhcurveto
            return
          </CharString>
          <CharString index="12">
            130 callgsubr
            -344 hlineto
            161 909 rlineto
            -576 hlineto
            -31 -186 rlineto
            349 hlineto
            -130 -723 rlineto
            -361 hlineto
            -32 -186 rlineto
            return
          </CharString>
          <CharString index="13">
            786 43 callgsubr
            -396 -99 callgsubr
            473 hlineto
            387 230 212 421 73 hvcurveto
            3 16 17 95 1 17 rrcurveto
            4 39 3 47 48 vvcurveto
            350 -196 198 -345 vhcurveto
            -43 -208 rmoveto
            217 116 -123 -234 -41 -3 -43 -4 -35 hvcurveto
            -1 -15 -15 -84 -2 -10 rrcurveto
            -295 -51 -150 -144 -268 hhcurveto
            -168 hlineto
            183 1024 rlineto
            return
          </CharString>
          <CharString index="14">
            rmoveto
            -25 callsubr
            -100 -551 208 callsubr
            -33 -29 vvcurveto
            -166 112 -87 213 35 217 3 3 16 vhcurveto
            130 callgsubr
            -2 -18 -157 -1 -44 hhcurveto
            -114 -54 40 81 12 1 12 3 17 hvcurveto
            101 552 rlineto
            418 hlineto
            4 callgsubr
            return
          </CharString>
          <CharString index="15">
            rmoveto
            9 53 5 60 50 vvcurveto
            251 -178 165 -271 -243 -202 -145 -207 -37 vhcurveto
            228 hlineto
            98 31 91 56 111 hhcurveto
            154 85 -89 -161 -11 -2 -22 -2 -10 hvcurveto
            -443 hlineto
            -27 -165 rlineto
            446 hlineto
            -6 -30 rlineto
            -168 -32 -101 -91 -150 hhcurveto
            -130 -95 77 103 hvcurveto
            18 -226 vlineto
            -2 -14 0 -23 -10 vvcurveto
            -204 185 -144 261 273 194 158 259 47 vhcurveto
            return
          </CharString>
          <CharString index="16">
            rmoveto
            -19 -100 rlineto
            -133 -24 -113 -94 -133 hhcurveto
            -111 -72 59 91 1 hvcurveto
            1 109 90 63 160 2 rrcurveto
            167 -347 rmoveto
            -26 -149 77 callgsubr
            115 653 rlineto
            14 73 3 30 38 vvcurveto
            193 -159 126 -242 -235 -192 -130 -183 -35 vhcurveto
            229 hlineto
            76 28 84 49 100 hhcurveto
            116 75 -60 -93 -15 -1 -16 -5 -24 hvcurveto
            -10 -61 -256 -4 -310 -5 -169 -129 2 -230 rlinecurve
            -179 1 136 -126 193 hhcurveto
            139 114 61 105 53 hvcurveto
            endchar
          </CharString>
          <CharString index="17">
            rmoveto
            1 14 1 14 11 vvcurveto
            217 -180 148 -263 -274 -197 -164 -269 -48 vhcurveto
            -7 -36 -16 -95 -3 -21 rrcurveto
            -8 -51 -4 -49 -43 vvcurveto
            -254 174 -161 277 249 190 146 224 46 vhcurveto
            -35 callsubr
            return
          </CharString>
          <CharString index="18">
            rmoveto
            -9 -53 18 callgsubr
            47 3 40 7 48 hvcurveto
            35 200 rmoveto
            8 48 17 callsubr
            -39 -3 -45 -6 -43 hvcurveto
            -872 -142 rmoveto
            -11 -54 -4 -58 -98 vvcurveto
            -298 205 -207 293 316 203 196 368 66 vhcurveto
            -22 callsubr
            endchar
          </CharString>
          <CharString index="19">
            -1443 rlineto
            return
          </CharString>
          <CharString index="20">
            rmoveto
            106 20 60 61 77 hhcurveto
            60 35 -36 -66 -18 -3 -19 -4 -23 hvcurveto
            -132 -753 rlineto
            198 hlineto
            133 751 rlineto
            105 19 59 59 76 hhcurveto
            60 34 -36 -66 -19 -2 -18 -5 -24 hvcurveto
            -132 -752 rlineto
            200 hlineto
            140 791 rlineto
            7 42 3 38 34 vvcurveto
            132 -74 80 -123 -100 -79 -66 -120 -44 vhcurveto
            -25 hlineto
            114 -5 -69 72 -108 hhcurveto
            -97 -79 -67 -119 -43 hvcurveto
            -25 hlineto
            28 164 rlineto
            -201 hlineto
            -192 -1095 rlineto
            200 hlineto
            return
          </CharString>
          <CharString index="21">
            rmoveto
            -4 -21 34 callsubr
            15 1 15 1 17 hvcurveto
            28 171 rmoveto
            3 17 34 callgsubr
            -12 0 -14 -1 -13 hvcurveto
            -768 -108 rmoveto
            -27 callgsubr
            -39 callgsubr
            endchar
          </CharString>
          <CharString index="22">
            754 hmoveto
            99 561 632 882 rlineto
            -272 hlineto
            -439 -636 rlineto
            -15 hlineto
            -221 636 160 callgsubr
            327 -882 -99 -561 rlineto
            return
          </CharString>
          <CharString index="23">
            26 hlineto
            147 92 85 161 29 hvcurveto
            29 178 rlineto
            -188 hlineto
            -24 -142 rlineto
            -76 -14 -46 -41 -71 hhcurveto
            -193 hlineto
            -173 -973 rlineto
            -175 -32 -109 -106 -147 hhcurveto
            -152 -98 100 152 22 3 35 6 33 hvcurveto
            161 912 196 callsubr
            -160 -911 rlineto
            -8 -41 -2 -33 -34 vvcurveto
            -274 192 -179 292 return
          </CharString>
          <CharString index="24">
            rmoveto
            79 66 67 82 81 -66 67 -79 -52 callsubr
            hvcurveto
            return
          </CharString>
          <CharString index="25">
            1134 hmoveto
            -65 callgsubr
            -238 hlineto
            -106 -603 rlineto
            -527 hlineto
            107 603 rlineto
            -238 -99 callgsubr
            238 57 callgsubr
            527 hlineto
            -112 -629 rlineto
            return
          </CharString>
          <CharString index="26">
            772 -17 rmoveto
            228 165 160 279 49 hvcurveto
            31 178 rlineto
            7 43 5 51 41 vvcurveto
            239 -153 140 -214 -140 -129 -81 -133 -49 vhcurveto
            -15 hlineto
            34 195 97 callgsubr
            -257 -1462 rlineto
            238 hlineto
            102 578 rlineto
            14 hlineto
            -132 19 128 -96 173 hhcurveto
            -56 205 rmoveto
            -142 -95 99 132 29 1 23 3 21 hvcurveto
            216 callgsubr
            163 30 109 92 144 hhcurveto
            136 85 -93 -132 -30 -3 -36 -4 -25 hvcurveto
            -28 -156 rlineto
            -167 -30 -96 -86 -139 hhcurveto
            return
          </CharString>
          <CharString index="27">
            243 callgsubr
            -253 -815 rlineto
            -28 hlineto
            2 813 rlineto
            -200 hlineto
            -284 -813 rlineto
            -29 hlineto
            29 815 160 callsubr
            33 -1095 rlineto
            208 hlineto
            303 784 rlineto
            11 hlineto
            20 -784 194 callsubr
            return
          </CharString>
          <CharString index="28">
            389 508 rmoveto
            78 580 rlineto
            17 hlineto
            125 -749 rlineto
            171 hlineto
            389 749 rlineto
            18 hlineto
            -128 -580 -91 -508 rlineto
            206 -59 callgsubr
            -261 hlineto
            -426 -854 rlineto
            -15 hlineto
            -127 854 rlineto
            -253 50 callgsubr
            return
          </CharString>
          <CharString index="29">
            rmoveto
            -264 hlineto
            -440 -825 rlineto
            -11 hlineto
            -210 825 228 callsubr
            306 -1080 rlineto
            -115 -81 -69 -43 -96 hhcurveto
            -30 -34 4 6 -19 hvcurveto
            -33 -214 rlineto
            -6 11 62 -7 40 hhcurveto
            213 137 108 296 168 hvcurveto
            return
          </CharString>
          <CharString index="30">
            149 callsubr
            -62 -63 -76 return
          </CharString>
          <CharString index="31">
            422 232 callgsubr
            242 hlineto
            87 483 rlineto
            255 hlineto
            354 234 219 326 254 -177 161 -281 hvcurveto
            -252 -202 rmoveto
            206 hlineto
            166 95 -83 -147 -202 -133 -124 -217 hvcurveto
            -216 hlineto
            return
          </CharString>
          <CharString index="32">
            rmoveto
            -89 callgsubr
            27 2 30 6 34 hvcurveto
            25 144 34 callgsubr
            -26 -2 -31 -4 -27 hvcurveto
            224 -27 rmoveto
            7 42 3 39 31 vvcurveto
            255 -187 184 -282 -261 -193 -163 -268 -47 vhcurveto
            -27 -156 rlineto
            -27 callgsubr
            endchar
          </CharString>
          <CharString index="33">
            186 callsubr
            128 hlineto
            110 66 -60 -102 -136 -92 -87 -142 hvcurveto
            -39 572 rmoveto
            60 335 rlineto
            -205 -32 callgsubr
            358 hlineto
            272 182 173 256 207 -135 124 -223 hvcurveto
            612 -760 rmoveto
            129 callsubr
            -212 -32 callgsubr
            endchar
          </CharString>
          <CharString index="34">
            rmoveto
            -64 -358 rlineto
            -167 hlineto
            -132 -70 65 95 121 96 77 157 hvcurveto
            247 -908 rmoveto
            129 callsubr
            -454 hlineto
            -302 -165 -160 -222 -140 80 -105 122 -46 hvcurveto
            -387 -422 rlineto
            272 hlineto
            330 375 rlineto
            150 hlineto
            -67 -375 rlineto
            endchar
          </CharString>
          <CharString index="35">
            rmoveto
            282 619 rlineto
            10 hlineto
            60 -619 rlineto
            55 -571 rmoveto
            247 hlineto
            -45 callsubr
            endchar
          </CharString>
          <CharString index="36">
            561 636 rmoveto
            166 hlineto
            156 101 -79 -123 -155 -118 -101 -181 -157 -118 92 125 9 0 9 1 3 hvcurveto
            -230 hlineto
            -1 -8 -1 -37 -13 vvcurveto
            -231 202 -156 297 329 225 185 269 158 -101 117 -162 30 vhcurveto
            2 15 rlineto
            182 19 143 159 186 vvcurveto
            218 -189 145 -282 -266 -192 -142 -231 -44 vhcurveto
            225 hlineto
            109 27 100 66 137 hhcurveto
            155 94 -75 -122 -141 -119 -96 -175 208 callgsubr
            return
          </CharString>
          <CharString index="37">
            213 callsubr
            422 122 callgsubr
            -1086 27 callgsubr
            422 hlineto
            -219 152 callgsubr
            return
          </CharString>
          <CharString index="38">
            rmoveto
            -233 hlineto
            -79 -444 rlineto
            -50 -52 -96 -32 -101 hhcurveto
            -123 -74 63 110 15 2 18 4 24 hvcurveto
            52 296 169 callsubr
            -56 -316 rlineto
            -6 -34 -2 -32 -30 vvcurveto
            -200 130 -119 208 119 104 29 59 78 vhcurveto
            12 hlineto
            return
          </CharString>
          <CharString index="39">
            rlineto
            240 hlineto
            192 216 rlineto
            17 hlineto
            return
          </CharString>
          <CharString index="40">
            rmoveto
            23 -94 7 -96 -1 -105 rrcurveto
            -398 -7 -115 -219 -223 hhcurveto
            -135 -68 66 127 31 3 41 8 44 hvcurveto
            107 603 rlineto
            -222 hlineto
            -110 -621 rlineto
            -7 -44 -6 -58 -38 vvcurveto
            -233 153 -123 260 377 200 314 507 10 vhcurveto
            2 112 -13 118 -22 66 rrcurveto
            endchar
          </CharString>
          <CharString index="41">
            rmoveto
            332 84 callgsubr
            -117 101 callsubr
            208 -350 rlineto
            return
          </CharString>
          <CharString index="42">
            886 hlineto
            32 190 rlineto
            -583 hlineto
            2 15 706 730 27 160 rlineto
            -871 96 callgsubr
            580 hlineto
            -2 -16 -720 -745 rlineto
            return
          </CharString>
          <CharString index="43">
            -85 101 callgsubr
            -143 -97 -40 callgsubr
            29 46 54 hhcurveto
            return
          </CharString>
          <CharString index="44">
            38 hmoveto
            259 hlineto
            422 535 rlineto
            12 hlineto
            242 -535 rlineto
            252 hlineto
            -329 721 583 722 rlineto
            -269 hlineto
            -422 -546 rlineto
            -12 hlineto
            -228 546 rlineto
            -258 hlineto
            316 -715 rlineto
            return
          </CharString>
          <CharString index="45">
            -31 callsubr
            101 callgsubr
            -144 -96 -40 callgsubr
            29 46 53 hhcurveto
            return
          </CharString>
          <CharString index="46">
            454 540 rlineto
            -263 hlineto
            -302 -388 rlineto
            -16 hlineto
            -170 388 rlineto
            -258 hlineto
            264 -550 -454 -545 rlineto
            256 hlineto
            311 390 rlineto
            return
          </CharString>
          <CharString index="47">
            918 -4 rmoveto
            67 69 5 8 43 hvcurveto
            31 183 rlineto
            -5 -43 -67 -3 -39 hhcurveto
            -126 -52 40 67 27 4 28 8 40 hvcurveto
            129 709 rlineto
            -577 hlineto
            -33 -188 rlineto
            344 hlineto
            -105 -577 rlineto
            -7 -39 -3 -35 -27 vvcurveto
            -141 112 -92 245 vhcurveto
            return
          </CharString>
          <CharString index="48">
            11 callgsubr
            99 -31 callgsubr
            return
          </CharString>
          <CharString index="49">
            -114 -192 -18 96 callsubr
            101 return
          </CharString>
          <CharString index="50">
            247 hlineto
            -29 callsubr
            return
          </CharString>
          <CharString index="51">
            rmoveto
            216 callgsubr
            -696 37 callgsubr
            return
          </CharString>
          <CharString index="52">
            882 176 rmoveto
            -1 -9 0 -14 1 -10 rrcurveto
            -92 6 72 -61 128 hhcurveto
            55 44 8 9 24 hvcurveto
            31 177 rlineto
            -3 -15 -15 -2 -16 hhcurveto
            -53 -28 23 48 15 2 23 4 23 hvcurveto
            139 784 97 callgsubr
            -38 -215 rlineto
            -17 hlineto
            143 -28 -122 91 -165 hhcurveto
            -242 -123 -166 -224 -50 hvcurveto
            -10 -25 -17 -97 -14 -77 rrcurveto
            -14 -79 -6 -40 -44 vvcurveto
            -245 156 -134 213 151 121 88 105 49 vhcurveto
            -156 740 rmoveto
            133 103 -97 -134 -27 -3 -28 -6 -36 hvcurveto
            -4 -20 -22 -130 -2 -11 rrcurveto
            -161 -35 -114 -86 -122 hhcurveto
            -123 -102 70 156 33 3 29 6 35 hvcurveto
            4 22 22 134 7 24 rrcurveto
            144 32 97 83 126 hhcurveto
            return
          </CharString>
          <CharString index="53">
            202 hmoveto
            387 624 rlineto
            55 hlineto
            -110 -624 rlineto
            202 hlineto
            111 624 rlineto
            63 hlineto
            165 -624 rlineto
            215 hlineto
            -194 721 423 722 rlineto
            -221 hlineto
            -365 -629 rlineto
            -54 57 callgsubr
            -202 hlineto
            -111 -629 rlineto
            -62 hlineto
            -144 629 rlineto
            -210 hlineto
            171 -703 -456 -740 rlineto
            return
          </CharString>
          <CharString index="54">
            -112 -14 -88 -74 -1 callsubr
            12 hvcurveto
            -173 hlineto
            -189 -35 153 -155 220 hhcurveto
            return
          </CharString>
          <CharString index="55">
            -79 -67 -67 -81 -82 67 -67 79 return
          </CharString>
          <CharString index="56">
            rmoveto
            10 55 rlineto
            146 31 103 86 142 hhcurveto
            144 89 -95 -137 -13 hvcurveto
            -11 -4 -35 -2 -9 vhcurveto
            -741 -86 rmoveto
            -11 -69 -5 -43 -47 vvcurveto
            -230 131 -154 219 -33 vhcurveto
            -63 -112 134 callsubr
            -71 -41 -61 9 10 -26 102 callsubr
            46 58 -9 48 hhcurveto
            170 102 24 callsubr
            56 102 218 19 166 125 30 173 rlinecurve
            -230 hlineto
            -82 -26 -90 -52 -113 hhcurveto
            -152 -92 99 152 11 hvcurveto
            8 6 52 4 17 vhcurveto
            725 hlineto
            15 100 rlineto
            4 21 7 62 27 vvcurveto
            239 16 -182 177 -263 hhcurveto
            -273 -199 -164 -261 -44 hvcurveto
            endchar
          </CharString>
          <CharString index="57">
            rmoveto
            28 166 rlineto
            -26 callgsubr
            return
          </CharString>
          <CharString index="58">
            325 485 rlineto
            76 hlineto
            -86 -485 rlineto
            191 hlineto
            86 485 rlineto
            77 hlineto
            160 -485 217 callgsubr
            -190 568 373 527 160 callsubr
            -317 -454 rlineto
            -73 hlineto
            81 454 rlineto
            -192 hlineto
            -81 -454 rlineto
            -70 hlineto
            -160 454 rlineto
            -203 hlineto
            181 -514 -394 -581 rlineto
            endchar
          </CharString>
          <CharString index="59">
            rmoveto
            -697 hlineto
            -33 -186 rlineto
            471 hlineto
            -156 -874 rlineto
            -124 -21 -67 -54 -146 hhcurveto
            -30 -184 3 7 -69 hvcurveto
            -35 -204 rlineto
            -7 78 177 -3 47 hhcurveto
            292 138 109 266 46 hvcurveto
            return
          </CharString>
          <CharString index="60">
            -105 callgsubr
            225 hlineto
            endchar
          </CharString>
          <CharString index="61">
            -106 -603 rlineto
            -49 -65 -103 -57 -144 hhcurveto
            -183 -85 115 198 35 hvcurveto
            69 396 rlineto
            -242 hlineto
            -70 -397 rlineto
            -324 -56 155 -207 299 hhcurveto
            131 116 35 66 92 hvcurveto
            12 hlineto
            return
          </CharString>
          <CharString index="62">
            -188 181 callgsubr
            -69 callgsubr
            173 379 rlineto
            458 hlineto
            return
          </CharString>
          <CharString index="63">
            rmoveto
            89 callgsubr
            -268 13 callsubr
            return
          </CharString>
          <CharString index="64">
            rmoveto
            201 callsubr
            88 hlineto
            622 16 rmoveto
            35 210 rlineto
            -859 hlineto
            -634 -88 callsubr
            243 hlineto
            161 387 rlineto
            285 hlineto
            -69 -387 rlineto
            619 79 callsubr
            -400 hlineto
            76 416 rlineto
            364 hlineto
            34 199 rlineto
            -364 hlineto
            74 407 rlineto
            endchar
          </CharString>
          <CharString index="65">
            639 -29 rmoveto
            269 166 144 279 49 hvcurveto
            186 1049 rlineto
            -752 hlineto
            -34 -208 rlineto
            509 hlineto
            -146 -809 rlineto
            -153 -27 -86 -82 -130 hhcurveto
            -128 -89 81 115 8 1 10 1 8 hvcurveto
            -227 hlineto
            -3 -16 -1 -16 -18 vvcurveto
            -233 180 -159 262 vhcurveto
            return
          </CharString>
          <CharString index="66">
            -105 callsubr
            endchar
          </CharString>
          <CharString index="67">
            -23 callsubr
            199 196 rlineto
            15 hlineto
            129 -196 rlineto
            return
          </CharString>
          <CharString index="68">
            140 callgsubr
            654 hlineto
            32 189 rlineto
            -233 56 callgsubr
            return
          </CharString>
          <CharString index="69">
            -107 -33 callgsubr
            return
          </CharString>
          <CharString index="70">
            930 636 rmoveto
            34 199 rlineto
            -181 hlineto
            -144 -87 70 110 139 114 120 192 148 90 -75 -119 -10 0 -11 -2 -10 hvcurveto
            225 hlineto
            4 22 1 23 20 vvcurveto
            221 -165 137 -285 -347 -204 -207 -243 -135 81 -99 134 -29 vhcurveto
            -2 -16 rlineto
            -245 -21 -149 -166 -199 vvcurveto
            -244 186 -142 303 296 247 162 268 58 vhcurveto
            -231 hlineto
            -134 -33 -139 -89 -176 hhcurveto
            -160 -98 72 128 148 116 110 233 hvcurveto
            return
          </CharString>
          <CharString index="71">
            hlineto
            -112 -14 -89 -74 -14 callgsubr
            -189 -35 153 -155 return
          </CharString>
          <CharString index="72">
            -80 callgsubr
            vlineto
            return
          </CharString>
          <CharString index="73">
            -30 callsubr
            8 28 46 54 return
          </CharString>
          <CharString index="74">
            rmoveto
            -179 347 rlineto
            -259 hlineto
            213 -347 rlineto
            return
          </CharString>
          <CharString index="75">
            rlinecurve
            -80 callgsubr
            return
          </CharString>
          <CharString index="76">
            rmoveto
            85 -62 callgsubr
            -54 -84 return
          </CharString>
          <CharString index="77">
            121 callsubr
            -144 -96 -58 callsubr
            return
          </CharString>
          <CharString index="78">
            -188 -64 callgsubr
            return
          </CharString>
          <CharString index="79">
            660 -22 rmoveto
            298 196 131 236 58 hvcurveto
            -238 hlineto
            -117 -39 -98 -60 -154 hhcurveto
            -152 -86 56 98 hvcurveto
            88 1 76 54 125 hhcurveto
            190 hlineto
            31 181 rlineto
            -118 hlineto
            -131 -78 49 83 93 87 56 140 152 82 -52 -105 18 hvcurveto
            225 hlineto
            226 -17 -167 121 -294 hhcurveto
            -268 -180 -126 -189 -99 43 -69 95 -52 hvcurveto
            -2 -13 rlineto
            -154 -25 -93 -104 -145 vvcurveto
            -194 173 -122 279 vhcurveto
            return
          </CharString>
          <CharString index="80">
            rmoveto
            -331 -13 callgsubr
            return
          </CharString>
          <CharString index="81">
            rmoveto
            -332 -351 -68 callsubr
            118 -216 rlineto
            226 73 callgsubr
            return
          </CharString>
          <CharString index="82">
            -54 -313 rlineto
            -288 hlineto
            -33 -188 rlineto
            288 hlineto
            return
          </CharString>
          <CharString index="83">
            542 hlineto
            28 164 rlineto
            -338 hlineto
            2 16 465 755 27 160 rlineto
            -522 hlineto
            -28 -164 rlineto
            332 hlineto
            -2 -16 -481 -770 rlineto
            -443 1298 55 callgsubr
            206 hlineto
            310 162 239 594 74 hvcurveto
            14 102 7 79 66 vvcurveto
            255 -94 108 -223 vhcurveto
            -48 -167 rmoveto
            19 hlineto
            116 45 -53 -139 -56 -8 -80 -17 -117 hvcurveto
            -465 -61 -110 -199 -163 hhcurveto
            -18 hlineto
            endchar
          </CharString>
          <CharString index="84">
            hlineto
            -339 -324 137 callsubr
            return
          </CharString>
          <CharString index="85">
            235 callgsubr
            305 -203 207 -300 -306 -210 -47 callgsubr
            vhcurveto
            return
          </CharString>
          <CharString index="86">
            rmoveto
            -105 -28 -83 -54 -123 hhcurveto
            -154 -85 90 161 11 2 24 2 12 hvcurveto
            431 hlineto
            28 165 rlineto
            -435 hlineto
            6 30 rlineto
            165 33 101 90 149 hhcurveto
            129 96 -80 -106 hvcurveto
            -18 226 vlineto
            2 14 0 23 11 vvcurveto
            206 -185 146 -262 -272 -194 -158 -259 -47 vhcurveto
            -27 -145 rlineto
            -9 -59 -5 -58 -47 vvcurveto
            -252 180 -164 277 251 186 140 217 39 vhcurveto
            endchar
          </CharString>
          <CharString index="87">
            153 callsubr
            endchar
          </CharString>
          <CharString index="88">
            73 62 63 76 return
          </CharString>
          <CharString index="89">
            rmoveto
            281 199 174 295 52 hvcurveto
            149 838 rlineto
            -84 callsubr
            vhcurveto
            endchar
          </CharString>
          <CharString index="90">
            rmoveto
            93 31 -151 156 hhcurveto
            134 96 49 callsubr
            -10 -34 -47 -51 120 callgsubr
            -16 hvcurveto
            153 204 callsubr
            53 hhcurveto
            endchar
          </CharString>
          <CharString index="91">
            -196 rlineto
            -16 hlineto
            -128 100 callsubr
            return
          </CharString>
          <CharString index="92">
            723 -14 callsubr
            -163 -1062 -103 callsubr
            136 467 rmoveto
            -73 56 callsubr
            73 73 62 63 184 callgsubr
            endchar
          </CharString>
          <CharString index="93">
            1633 83 callsubr
            return
          </CharString>
          <CharString index="94">
            rmoveto
            119 callgsubr
            -887 -99 callgsubr
            372 hlineto
            -71 -127 134 callsubr
            -72 -40 19 callgsubr
            48 hhcurveto
            169 103 24 callsubr
            66 122 rlineto
            362 79 callsubr
            134 callgsubr
            endchar
          </CharString>
          <CharString index="95">
            535 204 rmoveto
            86 469 rlineto
            175 hlineto
            161 89 -66 -119 -169 -107 -115 -229 hvcurveto
            -56 671 rmoveto
            33 187 rlineto
            469 hlineto
            33 193 rlineto
            -467 129 callgsubr
            -242 hlineto
            -33 -188 rlineto
            -271 hlineto
            -33 -193 rlineto
            270 hlineto
            -187 -1062 rlineto
            480 hlineto
            351 205 211 304 222 -158 138 -267 hvcurveto
            endchar
          </CharString>
          <CharString index="96">
            -220 hlineto
            -82 -25 -86 -52 -108 hhcurveto
            -145 -90 99 152 12 hvcurveto
            8 6 52 4 17 vhcurveto
            694 hlineto
            15 100 rlineto
            3 21 7 62 27 vvcurveto
            239 16 -175 177 -251 hhcurveto
            -261 -191 -164 -261 -43 hvcurveto
            208 -45 rmoveto
            2 6 8 44 1 5 rrcurveto
            146 30 98 86 137 hhcurveto
            137 86 199 callsubr
          </CharString>
          <CharString index="97">
            1923 rmoveto
            -213 -165 145 callgsubr
            91 72 113 hhcurveto
            111 68 -71 -108 -10 224 callsubr
            -144 239 callgsubr
          </CharString>
          <CharString index="98">
            rmoveto
            222 136 144 294 51 hvcurveto
            184 1040 rlineto
            -585 hlineto
            -35 -209 rlineto
            359 hlineto
            -145 -811 rlineto
            -170 -30 -52 -67 -87 hhcurveto
            -66 -36 42 78 22 3 28 6 39 hvcurveto
            -219 hlineto
            -7 -43 -4 -39 -37 vvcurveto
            -198 109 -113 196 vhcurveto
            -471 35 rmoveto
            -65 callgsubr
            -227 72 callgsubr
          </CharString>
          <CharString index="99">
            139 callsubr
            724 79 callsubr
            -246 hlineto
            181 1021 113 callsubr
            return
          </CharString>
          <CharString index="100">
            169 callgsubr
            73 88 callsubr
            -73 -73 57 -59 71 hvcurveto
            return
          </CharString>
          <CharString index="101">
            508 647 rmoveto
            10 55 rlineto
            146 31 103 86 142 hhcurveto
            144 89 -95 -137 -13 hvcurveto
            -11 -4 -35 -2 -9 vhcurveto
            return
          </CharString>
          <CharString index="102">
            rmoveto
            29 235 callsubr
            return
          </CharString>
          <CharString index="103">
            911 1338 rmoveto
            100 70 65 94 94 -70 65 -100 -99 -70 -65 -94 -94 70 -65 99 hvcurveto
            return
          </CharString>
          <CharString index="104">
            201 callgsubr
            43 hhcurveto
            64 36 -27 -44 -43 -42 -45 -73 -24 hvcurveto
            65 -99 rlineto
            127 41 80 150 callsubr
            -88 72 -128 -50 -53 -9 -16 -41 vhcurveto
            return
          </CharString>
          <CharString index="105">
            -110 -17 -73 -76 -19 callgsubr
            -151 214 hhcurveto
            return
          </CharString>
          <CharString index="106">
            -117 hhcurveto
            -121 -72 74 112 return
          </CharString>
          <CharString index="107">
            -35 callgsubr
            endchar
          </CharString>
          <CharString index="108">
            215 callsubr
            339 324 rlineto
            -230 hlineto
            -198 -16 callsubr
            endchar
          </CharString>
          <CharString index="109">
            155 135 188 callsubr
            return
          </CharString>
          <CharString index="110">
            324 rlineto
            -230 100 callgsubr
            return
          </CharString>
          <CharString index="111">
            10 callsubr
            -73 return
          </CharString>
          <CharString index="112">
            rmoveto
            -7 callsubr
            429 hmoveto
            -7 callsubr
            return
          </CharString>
          <CharString index="113">
            20 18 105 rcurveline
            -134 -10 -127 -56 -79 -83 rrcurveto
            -81 -84 -43 -108 -118 vvcurveto
            -204 126 -139 183 163 120 118 160 vhcurveto
            return
          </CharString>
          <CharString index="114">
            473 hmoveto
            105 596 rlineto
            589 hlineto
            34 202 rlineto
            -588 hlineto
            78 434 rlineto
            646 79 callsubr
            -887 -99 callgsubr
            return
          </CharString>
          <CharString index="115">
            55 callsubr
            142 return
          </CharString>
          <CharString index="116">
            rlineto
            233 hlineto
            111 return
          </CharString>
          <CharString index="117">
            -19 callsubr
            76 -62 63 -73 return
          </CharString>
          <CharString index="118">
            63 -73 86 callgsubr
            hvcurveto
            endchar
          </CharString>
          <CharString index="119">
            rmoveto
            -253 hlineto
            233 -312 159 callsubr
            return
          </CharString>
          <CharString index="120">
            hlineto
            -301 -347 rlineto
            return
          </CharString>
          <CharString index="121">
            rmoveto
            179 357 97 callgsubr
            -152 243 callsubr
          </CharString>
          <CharString index="122">
            1157 887 rmoveto
            -523 hlineto
            1 7 rlineto
            221 47 113 141 174 hhcurveto
            164 67 -136 -215 -40 hvcurveto
            -746 -20 rmoveto
            -62 -28 30 53 61 33 67 14 22 hvcurveto
            -173 hlineto
            -26 -35 -36 -80 -92 vvcurveto
            -135 79 -94 161 vhcurveto
            5 hlineto
            return
          </CharString>
          <CharString index="123">
            6 8 38 1 5 vhcurveto
            140 28 70 85 87 hhcurveto
            81 50 -65 -106 -31 -3 -32 -5 -40 hvcurveto
            return
          </CharString>
          <CharString index="124">
            rlineto
            256 46 111 124 171 hhcurveto
            165 107 -119 -182 return
          </CharString>
          <CharString index="125">
            -254 hlineto
            -411 -864 rlineto
            -15 hlineto
            -117 864 rlineto
            return
          </CharString>
          <CharString index="126">
            rmoveto
            29 165 rlineto
            -696 hlineto
            return
          </CharString>
          <CharString index="127">
            hvcurveto
            -167 hlineto
            -100 -8 return
          </CharString>
          <CharString index="128">
            hlineto
            -199 -16 callsubr
            endchar
          </CharString>
          <CharString index="129">
            hlineto
            -554 348 26 callgsubr
            return
          </CharString>
          <CharString index="130">
            73 88 callgsubr
            -73 -72 20 callgsubr
            72 hvcurveto
            return
          </CharString>
          <CharString index="131">
            80 132 88 -64 57 -110 9 hvcurveto
            return
          </CharString>
          <CharString index="132">
            rmoveto
            73 62 63 75 76 -62 53 callsubr
            return
          </CharString>
          <CharString index="133">
            -239 -99 callgsubr
            return
          </CharString>
          <CharString index="134">
            -216 hlineto
            -160 -55 -102 -112 -143 hhcurveto
            -174 -71 147 292 52 hvcurveto
            10 51 rlineto
            736 hlineto
            0 25 118 10 62 vhcurveto
            356 62 -115 257 -321 hhcurveto
            -301 -194 -208 -379 -80 hvcurveto
            endchar
          </CharString>
          <CharString index="135">
            66 callsubr
            -35 95 callsubr
            return
          </CharString>
          <CharString index="136">
            rmoveto
            213 166 129 195 34 hvcurveto
            -177 hlineto
            -107 -21 -91 -72 -112 hhcurveto
            -112 -68 71 108 10 hvcurveto
            return
          </CharString>
          <CharString index="137">
            107 21 92 165 callsubr
            -11 224 callsubr
            -143 141 -213 hhcurveto
            return
          </CharString>
          <CharString index="138">
            155 134 188 callsubr
            return
          </CharString>
          <CharString index="139">
            -39 -49 -93 -17 132 -164 hhcurveto
            -133 -95 -103 -157 -17 hvcurveto
            154 hlineto
            79 10 32 40 50 hhcurveto
            endchar
          </CharString>
          <CharString index="140">
            hlineto
            112 14 89 166 callsubr
            -13 hvcurveto
            174 hlineto
            189 35 -153 155 return
          </CharString>
          <CharString index="141">
            rlineto
            -89 callgsubr
            return
          </CharString>
          <CharString index="142">
            hlineto
            295 348 195 callsubr
            return
          </CharString>
          <CharString index="143">
            hlineto
            -192 -216 rlineto
            return
          </CharString>
          <CharString index="144">
            rmoveto
            173 callgsubr
            -166 90 callsubr
            return
          </CharString>
          <CharString index="145">
            rmoveto
            112 92 94 115 115 -92 93 -112 -112 -93 -93 -115 -115 93 -94 112 hvcurveto
            return
          </CharString>
          <CharString index="146">
            rmoveto
            112 86 85 111 111 -86 84 -112 -113 -86 -84 -111 -111 86 -85 113 hvcurveto
            -1 99 rmoveto
            -55 -43 41 55 56 43 41 55 56 43 -41 -56 -55 -42 -41 -57 hvcurveto
            endchar
          </CharString>
          <CharString index="147">
            rmoveto
            79 66 67 81 82 -66 67 -79 -80 -66 -67 -82 -81 66 -67 80 hvcurveto
            return
          </CharString>
          <CharString index="148">
            9 callgsubr
            -34 143 return
          </CharString>
          <CharString index="149">
            rmoveto
            24 callgsubr
            return
          </CharString>
          <CharString index="150">
            -147 -660 rlineto
            -497 -128 -28 -68 -110 hhcurveto
            -19 -23 3 6 -20 hvcurveto
            -39 -227 rlineto
            -7 20 55 -7 30 hhcurveto
            259 75 153 631 155 hvcurveto
            100 462 rlineto
            422 hlineto
            return
          </CharString>
          <CharString index="151">
            69 callsubr
            -699 143 callsubr
            return
          </CharString>
          <CharString index="152">
            106 36 callgsubr
            -9 -18 -38 vhcurveto
            return
          </CharString>
          <CharString index="153">
            389 hmoveto
            144 callsubr
            228 51 callgsubr
            164 callsubr
            78 435 rlineto
            -229 hlineto
            -192 -1095 rlineto
            endchar
          </CharString>
          <CharString index="154">
            rlineto
            227 hlineto
            return
          </CharString>
          <CharString index="155">
            vvcurveto
            305 -203 207 -300 -306 -210 -47 callgsubr
            vhcurveto
            -40 -225 rlineto
            -11 return
          </CharString>
          <CharString index="156">
            117 167 228 callgsubr
            -89 return
          </CharString>
          <CharString index="157">
            rmoveto
            207 hlineto
            317 312 rlineto
            return
          </CharString>
          <CharString index="158">
            -101 callsubr
            endchar
          </CharString>
          <CharString index="159">
            rlineto
            239 hlineto
            111 622 rlineto
            46 hlineto
            420 -622 rlineto
            283 hlineto
            -498 723 return
          </CharString>
          <CharString index="160">
            63 -73 -73 -62 -63 -76 -75 124 callsubr
            75 149 callsubr
            return
          </CharString>
          <CharString index="161">
            64 -73 -73 -62 -64 -75 116 callsubr
            return
          </CharString>
          <CharString index="162">
            -154 161 hhcurveto
            return
          </CharString>
          <CharString index="163">
            59 callsubr
            -63 return
          </CharString>
          <CharString index="164">
            1633 rmoveto
            73 63 63 75 76 -63 190 callsubr
            73 62 63 75 149 callsubr
            56 callsubr
            73 hvcurveto
            return
          </CharString>
          <CharString index="165">
            -111 -16 -74 -75 92 callsubr
            return
          </CharString>
          <CharString index="166">
            -63 -63 -76 -75 63 return
          </CharString>
          <CharString index="167">
            rmoveto
            177 35 -143 152 -214 hhcurveto
            -214 214 callsubr
            -22 hvcurveto
            180 hlineto
            111 16 74 76 108 hhcurveto
            114 59 -79 -108 -13 hvcurveto
            return
          </CharString>
          <CharString index="168">
            rmoveto
            23 callsubr
            439 82 callgsubr
            endchar
          </CharString>
          <CharString index="169">
            rmoveto
            11 35 34 6 34 hhcurveto
            57 32 -24 -42 -41 -40 -42 -71 -23 hvcurveto
            69 -89 rlineto
            123 38 72 82 104 vvcurveto
            99 -80 65 -113 -43 -44 -7 -13 -43 vhcurveto
            endchar
          </CharString>
          <CharString index="170">
            40 225 rlineto
            return
          </CharString>
          <CharString index="171">
            1095 rmoveto
            164 callsubr
            77 435 rlineto
            -228 -32 callgsubr
            229 hlineto
            144 callsubr
            return
          </CharString>
          <CharString index="172">
            388 651 rmoveto
            -62 -31 30 54 55 24 53 24 41 hvcurveto
            -165 hlineto
            -27 -39 -33 -70 -72 vvcurveto
            -129 80 -82 160 vhcurveto
            5 hlineto
            -3 -33 -2 -28 -29 vvcurveto
            return
          </CharString>
          <CharString index="173">
            -111 -14 -89 -75 -14 callgsubr
            -188 return
          </CharString>
          <CharString index="174">
            90 45 callsubr
            return
          </CharString>
          <CharString index="175">
            151 callsubr
            -253 hlineto
            234 -312 159 callsubr
            return
          </CharString>
          <CharString index="176">
            50 callsubr
            -228 hlineto
            return
          </CharString>
          <CharString index="177">
            hhcurveto
            61 40 -29 -45 -48 -39 -39 -72 return
          </CharString>
          <CharString index="178">
            188 callgsubr
            185 callsubr
            return
          </CharString>
          <CharString index="179">
            hlineto
            183 146 rlineto
            return
          </CharString>
          <CharString index="180">
            hlineto
            -50 -285 rlineto
            return
          </CharString>
          <CharString index="181">
            rmoveto
            -95 callsubr
            endchar
          </CharString>
          <CharString index="182">
            151 callsubr
            -220 hlineto
            209 87 callgsubr
            -591 312 rmoveto
            return
          </CharString>
          <CharString index="183">
            85 40 -154 161 157 callgsubr
            return
          </CharString>
          <CharString index="184">
            -23 -131 rlineto
            return
          </CharString>
          <CharString index="185">
            -944 -32 callgsubr
            233 hlineto
            160 903 rlineto
            478 hlineto
            return
          </CharString>
          <CharString index="186">
            hlineto
            206 callsubr
            return
          </CharString>
          <CharString index="187">
            333 1095 rmoveto
            -33 -192 rlineto
            376 hlineto
            -160 -903 207 callgsubr
            160 903 rlineto
            376 hlineto
            33 192 rlineto
            endchar
          </CharString>
          <CharString index="188">
            67 -67 79 hvcurveto
            return
          </CharString>
          <CharString index="189">
            hmoveto
            23 callsubr
            return
          </CharString>
          <CharString index="190">
            rmoveto
            -71 callgsubr
            return
          </CharString>
          <CharString index="191">
            -147 hhcurveto
            -146 -99 102 147 return
          </CharString>
          <CharString index="192">
            -73 57 -59 71 169 callgsubr
            return
          </CharString>
          <CharString index="193">
            -72 59 callsubr
            return
          </CharString>
          <CharString index="194">
            hlineto
            131 -146 rlineto
            return
          </CharString>
          <CharString index="195">
            -57 59 -71 -71 -57 -59 return
          </CharString>
          <CharString index="196">
            9 127 56 79 83 rrcurveto
            81 85 43 108 118 vvcurveto
            204 -126 139 -183 -163 -120 -118 -160 vhcurveto
            return
          </CharString>
          <CharString index="197">
            hlineto
            -2 callgsubr
            hhcurveto
            return
          </CharString>
          <CharString index="198">
            71 58 59 73 73 -58 113 callgsubr
            return
          </CharString>
          <CharString index="199">
            205 callsubr
            42 callgsubr
            return
          </CharString>
          <CharString index="200">
            -223 -167 -139 -205 -23 hvcurveto
            return
          </CharString>
          <CharString index="201">
            78 9 callgsubr
            return
          </CharString>
          <CharString index="202">
            153 -156 220 hhcurveto
            return
          </CharString>
          <CharString index="203">
            hvcurveto
            167 hlineto
            return
          </CharString>
          <CharString index="204">
            638 rmoveto
            -423 -420 rlineto
            231 hlineto
            418 418 1 6 -270 419 rlineto
            -223 hlineto
            267 -417 rlineto
            return
          </CharString>
          <CharString index="205">
            640 rmoveto
            423 421 216 callsubr
            -418 -419 -1 -6 270 -418 159 callsubr
            -267 417 rlineto
            return
          </CharString>
          <CharString index="206">
            rmoveto
            171 hlineto
            155 361 rlineto
            -232 hlineto
            return
          </CharString>
          <CharString index="207">
            196 rlineto
            -211 hlineto
            return
          </CharString>
          <CharString index="208">
            216 rlineto
            -227 hlineto
            return
          </CharString>
          <CharString index="209">
            hvcurveto
            -21 -124 rlineto
            -14 return
          </CharString>
          <CharString index="210">
            -111 -14 -89 -75 -117 hhcurveto
            -121 -71 74 112 12 207 callsubr
            -188 -34 95 callsubr
            return
          </CharString>
          <CharString index="211">
            1311 1095 rmoveto
            -1005 85 callgsubr
            return
          </CharString>
          <CharString index="212">
            -107 -21 -91 -72 -113 176 callgsubr
            144 167 callgsubr
            return
          </CharString>
          <CharString index="213">
            -67 -9 -32 -38 -47 -95 -15 123 -162 hhcurveto
            -129 -96 -98 -148 -14 hvcurveto
            152 hlineto
            71 9 31 38 49 return
          </CharString>
          <CharString index="214">
            rmoveto
            262 644 196 callsubr
            -238 -644 rlineto
            endchar
          </CharString>
          <CharString index="215">
            hlineto
            -41 -239 rlineto
            218 hlineto
            return
          </CharString>
          <CharString index="216">
            rmoveto
            -234 hlineto
            -322 -250 rlineto
            235 hlineto
            184 146 rlineto
            16 87 callsubr
            224 hlineto
            return
          </CharString>
          <CharString index="217">
            rmoveto
            -234 hlineto
            -322 -250 rlineto
            235 72 callsubr
            17 87 callsubr
            224 hlineto
            return
          </CharString>
          <CharString index="218">
            2 3 -30 hvcurveto
            -33 -194 202 callsubr
            return
          </CharString>
          <CharString index="219">
            1361 -56 callsubr
            return
          </CharString>
          <CharString index="220">
            rlineto
            463 108 callsubr
            return
          </CharString>
          <CharString index="221">
            rmoveto
            146 99 -100 -147 -26 -2 return
          </CharString>
          <CharString index="222">
            148 rlineto
            -704 hlineto
            return
          </CharString>
          <CharString index="223">
            -76 62 -63 73 hvcurveto
            return
          </CharString>
          <CharString index="224">
            -251 hlineto
            -412 -744 rlineto
            -11 hlineto
            -143 744 rlineto
            -237 -32 callgsubr
            185 hlineto
            return
          </CharString>
          <CharString index="225">
            -24 hvcurveto
            65 -99 rlineto
            127 41 79 88 107 vvcurveto
            111 -87 222 callsubr
          </CharString>
          <CharString index="226">
            63 -63 73 hvcurveto
            return
          </CharString>
          <CharString index="227" raw="1">
            f7121d55 0b  
          </CharString>
          <CharString index="228">
            153 -161 hhcurveto
            return
          </CharString>
          <CharString index="229">
            -76 119 callsubr
            return
          </CharString>
          <CharString index="230">
            56 hlineto
            84 42 -21 -42 -42 -42 -24 -72 -40 19 callgsubr
            return
          </CharString>
          <CharString index="231">
            62 -63 180 callgsubr
            63 return
          </CharString>
          <CharString index="232">
            1615 153 callgsubr
            endchar
          </CharString>
          <CharString index="233">
            1310 rmoveto
            99 70 65 94 94 -70 65 -99 -100 return
          </CharString>
          <CharString index="234">
            73 62 64 75 76 -62 63 -73 return
          </CharString>
          <CharString index="235">
            14 hlineto
            -137 -764 rlineto
            return
          </CharString>
          <CharString index="236">
            192 1095 rlineto
            return
          </CharString>
          <CharString index="237">
            185 callgsubr
            76 89 107 36 callgsubr
            -10 -18 -38 vhcurveto
            return
          </CharString>
          <CharString index="238">
            93 61 93 143 82 -43 44 -77 -91 -63 -96 -141 -81 42 -44 78 hvcurveto
            409 hmoveto
            return
          </CharString>
          <CharString index="239">
            1394 1232 rmoveto
            119 callgsubr
            -1086 27 callgsubr
            422 hlineto
            -78 return
          </CharString>
          <CharString index="240">
            rmoveto
            85 37 -139 161 hhcurveto
            138 103 233 callgsubr
            return
          </CharString>
          <CharString index="241">
            95 callgsubr
            -43 -24 return
          </CharString>
          <CharString index="242">
            13 callsubr
            235 hlineto
            return
          </CharString>
          <CharString index="243">
            hlineto
            -51 -285 rlineto
            return
          </CharString>
          <CharString index="244">
            rlineto
            230 hlineto
            return
          </CharString>
          <CharString index="245">
            rlineto
            -238 hlineto
            return
          </CharString>
          <CharString index="246">
            27 callgsubr
            230 hlineto
            -180 -1021 rlineto
            -234 27 callgsubr
            return
          </CharString>
          <CharString index="247">
            rmoveto
            79 66 67 81 82 -66 67 -79 -79 -67 -67 -82 238 callsubr
          </CharString>
          <CharString index="248">
            rlineto
            -226 hlineto
            return
          </CharString>
          <CharString index="249">
            267 216 callsubr
            -350 -301 rmoveto
            -235 hlineto
            -321 -250 rlineto
            return
          </CharString>
          <CharString index="250">
            -312 50 callsubr
            return
          </CharString>
          <CharString index="251">
            83 467 rlineto
            488 hlineto
            -83 -467 rlineto
            return
          </CharString>
          <CharString index="252">
            hlineto
            189 35 -153 155 -220 hhcurveto
            return
          </CharString>
          <CharString index="253">
            267 rlineto
            -219 hlineto
            175 -267 rlineto
            return
          </CharString>
          <CharString index="254">
            151 callgsubr
            16 hvcurveto
            -167 hlineto
            -100 return
          </CharString>
          <CharString index="255">
            127 509 110 hvcurveto
            return
          </CharString>
          <CharString index="256">
            76 -62 63 -73 -73 return
          </CharString>
          <CharString index="257">
            88 107 vvcurveto
            111 return
          </CharString>
          <CharString index="258">
            1918 rmoveto
            return
          </CharString>
          <CharString index="259">
            1468 200 callsubr
            -35 -211 137 callsubr
            return
          </CharString>
          <CharString index="260">
            195 callgsubr
            82 81 -67 67 -79 -79 -66 -67 -81 -82 66 -67 79 hvcurveto
            return
          </CharString>
          <CharString index="261">
            rmoveto
            79 58 57 76 76 -58 56 -79 -79 -58 -56 -76 -76 58 -57 79 hvcurveto
            return
          </CharString>
          <CharString index="262">
            hhcurveto
            165 107 -119 -182 -28 callgsubr
            -36 callgsubr
            return
          </CharString>
          <CharString index="263">
            -73 20 callgsubr
            73 hvcurveto
            endchar
          </CharString>
          <CharString index="264">
            76 -63 63 -72 -73 -63 -63 -76 return
          </CharString>
          <CharString index="265">
            hlineto
            -241 -644 rlineto
            return
          </CharString>
          <CharString index="266">
            rlineto
            223 hlineto
            return
          </CharString>
          <CharString index="267">
            rlineto
            -215 hlineto
            return
          </CharString>
          <CharString index="268">
            72 63 63 75 157 callsubr
            -75 119 callsubr
            return
          </CharString>
          <CharString index="269">
            rmoveto
            176 hlineto
            290 324 rlineto
            -216 hlineto
            -179 -719 rmoveto
            return
          </CharString>
          <CharString index="270">
            1881 rmoveto
            -136 249 rlineto
            -230 hlineto
            160 -249 rlineto
            return
          </CharString>
          <CharString index="271">
            -228 hlineto
            -78 -435 rlineto
            -488 hlineto
            return
          </CharString>
          <CharString index="272">
            72 112 hhcurveto
            112 68 -71 -108 return
          </CharString>
          <CharString index="273">
            74 136 callgsubr
            return
          </CharString>
          <CharString index="274">
            rlineto
            241 callgsubr
            return
          </CharString>
          <CharString index="275">
            -131 -131 return
          </CharString>
          <CharString index="276">
            rlineto
            -233 hlineto
            return
          </CharString>
          <CharString index="277">
            11 24 44 7 38 hhcurveto
            52 29 -21 -38 -42 -38 -39 -63 -22 hvcurveto
            return
          </CharString>
          <CharString index="278">
            58 -9 48 hhcurveto
            169 103 80 132 82 -57 58 -94 14 hvcurveto
            return
          </CharString>
          <CharString index="279">
            125 hhcurveto
            192 hlineto
            30 172 rlineto
            -117 hlineto
            -132 -77 return
          </CharString>
          <CharString index="280">
            hlineto
            -220 -1248 rlineto
            -268 hlineto
            221 1248 rlineto
            return
          </CharString>
          <CharString index="281">
            -348 41 callgsubr
            endchar
          </CharString>
          <CharString index="282">
            rmoveto
            76 callsubr
            return
          </CharString>
          <CharString index="283">
            1606 70 callgsubr
            return
          </CharString>
          <CharString index="284">
            95 209 callsubr
            14 hvcurveto
            return
          </CharString>
          <CharString index="285">
            hvcurveto
            25 144 rlineto
            172 31 99 97 144 hhcurveto
            endchar
          </CharString>
          <CharString index="286">
            -74 -60 -61 -77 -76 60 -61 74 74 return
          </CharString>
          <CharString index="287">
            -151 156 hhcurveto
            135 return
          </CharString>
          <CharString index="288">
            -21 callgsubr
            696 hlineto
            return
          </CharString>
          <CharString index="289">
            96 117 167 15 hvcurveto
            return
          </CharString>
          <CharString index="290">
            -12 -104 rlineto
            56 hlineto
            84 return
          </CharString>
          <CharString index="291">
            hlineto
            -188 -1069 rlineto
            return
          </CharString>
          <CharString index="292">
            78 108 13 hvcurveto
            return
          </CharString>
          <CharString index="293">
            rmoveto
            240 callsubr
            return
          </CharString>
          <CharString index="294">
            -81 81 callsubr
            return
          </CharString>
          <CharString index="295">
            194 22 hvcurveto
            return
          </CharString>
          <CharString index="296">
            82 198 34 hvcurveto
            246 -265 rmoveto
            -31 -180 rlineto
            return
          </CharString>
          <CharString index="297">
            63 -73 116 callgsubr
            -63 73 hvcurveto
            -438 hmoveto
            return
          </CharString>
          <CharString index="298">
            rmoveto
            -144 324 141 callsubr
            177 -324 rlineto
            return
          </CharString>
          <CharString index="299">
            hlineto
            -118 216 141 callsubr
            208 -350 rlineto
            return
          </CharString>
          <CharString index="300">
            hvcurveto
            212 callsubr
          </CharString>
          <CharString index="301">
            rlineto
            210 hlineto
            return
          </CharString>
          <CharString index="302">
            rlineto
            -234 hlineto
            return
          </CharString>
          <CharString index="303">
            rlineto
            -241 hlineto
            return
          </CharString>
          <CharString index="304">
            93 43 -118 148 hhcurveto
            122 98 96 134 return
          </CharString>
          <CharString index="305" raw="1">
            1c064ff7 0f1ddd48 ce3c3c0b 
          </CharString>
          <CharString index="306">
            -95 -137 -13 hvcurveto
            -11 -4 -35 -2 -9 vhcurveto
            endchar
          </CharString>
          <CharString index="307">
            43 callgsubr
            -1158 hlineto
            return
          </CharString>
          <CharString index="308">
            -238 hlineto
            261 628 rlineto
            return
          </CharString>
          <CharString index="309">
            rlineto
            -3 41 171 -2 56 hhcurveto
            return
          </CharString>
          <CharString index="310">
            rmoveto
            -26 callgsubr
            return
          </CharString>
          <CharString index="311">
            hlineto
            92 10 33 47 return
          </CharString>
          <CharString index="312">
            -108 hhcurveto
            -114 return
          </CharString>
          <CharString index="313">
            35 211 rlineto
            return
          </CharString>
          <CharString index="314">
            hvcurveto
            -174 hlineto
            return
          </CharString>
          <CharString index="315">
            rlineto
            -7 -37 -3 return
          </CharString>
          <CharString index="316">
            14 -123 162 hhcurveto
            128 97 103 139 return
          </CharString>
          <CharString index="317">
            1566 rmoveto
            -73 59 callsubr
            -64 73 return
          </CharString>
          <CharString index="318">
            rmoveto
            38 229 rlineto
            -1059 hlineto
            -38 -229 rlineto
            return
          </CharString>
          <CharString index="319">
            -65 callgsubr
            endchar
          </CharString>
          <CharString index="320">
            218 1232 rlineto
            return
          </CharString>
          <CharString index="321">
            -155 -135 -194 return
          </CharString>
          <CharString index="322">
            rmoveto
            218 hlineto
            return
          </CharString>
          <CharString index="323">
            rlineto
            -231 hlineto
            return
          </CharString>
          <CharString index="324">
            hlineto
            83 467 return
          </CharString>
          <CharString index="325">
            56 42 41 56 hvcurveto
            -292 vmoveto
            113 85 return
          </CharString>
          <CharString index="326">
            rmoveto
            704 hlineto
            25 115 callsubr
            return
          </CharString>
          <CharString index="327">
            25 2 26 25 vvcurveto
            164 -101 102 -163 return
          </CharString>
          <CharString index="328">
            37 52 57 hhcurveto
            51 24 -30 -66 -21 -2 -24 return
          </CharString>
          <CharString index="329">
            72 -128 -50 -53 -9 -16 -41 vhcurveto
            endchar
          </CharString>
          <CharString index="330">
            63 callsubr
            10 62 5 return
          </CharString>
          <CharString index="331">
            hvcurveto
            171 hlineto
            183 28 return
          </CharString>
          <CharString index="332">
            hvcurveto
            28 156 rlineto
            return
          </CharString>
          <CharString index="333">
            76 -62 63 -73 hvcurveto
            return
          </CharString>
          <CharString index="334">
            -16 hvcurveto
            153 hlineto
            return
          </CharString>
          <CharString index="335">
            rlineto
            -251 hlineto
            return
          </CharString>
          <CharString index="336" raw="1">
            ca4cd31f 0b  
          </CharString>
          <CharString index="337">
            rlineto
            136 hlineto
            return
          </CharString>
          <CharString index="338">
            -16 -74 -76 205 callsubr
            -59 78 return
          </CharString>
          <CharString index="339">
            247 hmoveto
            181 1007 rlineto
            18 hlineto
            return
          </CharString>
          <CharString index="340">
            198 258 212 -149 127 return
          </CharString>
          <CharString index="341">
            -27 -156 rlineto
            -7 -39 -3 -39 -38 vvcurveto
            return
          </CharString>
          <CharString index="342">
            166 rlineto
            -696 hlineto
            -28 -166 rlineto
            return
          </CharString>
          <CharString index="343">
            rlineto
            -242 -99 callgsubr
            return
          </CharString>
          <CharString index="344">
            rrcurveto
            4 hlineto
            -54 -299 rlineto
            -173 hlineto
            return
          </CharString>
          <CharString index="345">
            187 callsubr
            endchar
          </CharString>
          <CharString index="346">
            rmoveto
            -222 hlineto
            return
          </CharString>
          <CharString index="347">
            70 385 rlineto
            return
          </CharString>
          <CharString index="348">
            153 -160 return
          </CharString>
          <CharString index="349">
            rlineto
            261 hlineto
            return
          </CharString>
          <CharString index="350">
            -357 rlineto
            endchar
          </CharString>
        <CharString name=".notdef">
          endchar
        </CharString>
        <CharString name="A">
          560 571 -72 callsubr
        </CharString>
        <CharString name="AE">
          728 589 -43 callsubr
        </CharString>
        <CharString name="AEacute">
          1519 151 callsubr
          -266 hlineto
          -312 -312 rlineto
          236 hlineto
          -338 -389 rmoveto
          -111 -628 rlineto
          201 callsubr
          -748 -1217 rmoveto
          243 hlineto
          161 387 rlineto
          285 hlineto
          -69 -387 rlineto
          619 79 callsubr
          -400 hlineto
          76 416 rlineto
          364 hlineto
          34 199 rlineto
          -364 hlineto
          74 407 rlineto
          400 hlineto
          35 210 rlineto
          -859 hlineto
          endchar
        </CharString>
        <CharString name="AEmacron">
          1477 1838 146 callgsubr
          -720 -1083 -43 callsubr
        </CharString>
        <CharString name="Aacute">
          1343 151 callsubr
          -265 hlineto
          -312 -312 rlineto
          235 hlineto
          -441 -1035 -103 callsubr
          endchar
        </CharString>
        <CharString name="Abreve">
          560 571 -103 callsubr
          131 480 rmoveto
          106 callgsubr
          213 166 129 195 34 hvcurveto
          endchar
        </CharString>
        <CharString name="Abreveacute">
          1261 2130 rmoveto
          -223 hlineto
          -206 -238 rlineto
          188 hlineto
          -460 -1321 -103 callsubr
          120 437 rmoveto
          -93 -12 -84 -66 -112 hhcurveto
          -108 -71 63 96 -3 hvcurveto
          -176 hlineto
          -175 -10 143 -125 215 hhcurveto
          209 164 127 173 22 hvcurveto
          endchar
        </CharString>
        <CharString name="Abrevedotbelow">
          577 -169 rmoveto
          -52 callsubr
          79 66 67 82 81 -66 67 -79 hvcurveto
          -17 740 -103 callsubr
          131 480 rmoveto
          106 callgsubr
          213 166 129 195 34 hvcurveto
          endchar
        </CharString>
        <CharString name="Abrevegrave">
          1063 1892 rmoveto
          -123 238 rlineto
          -209 hlineto
          157 -238 rlineto
          -328 -1321 -103 callsubr
          120 437 rmoveto
          -93 -12 -84 -66 -112 hhcurveto
          -108 -71 63 96 -3 hvcurveto
          -176 hlineto
          -175 -10 143 -125 215 hhcurveto
          209 164 127 173 22 hvcurveto
          endchar
        </CharString>
        <CharString name="Abrevehookabove">
          933 1800 rmoveto
          118 174 callgsubr
          -21 -116 rlineto
          170 callsubr
          -307 -1313 -103 callsubr
          119 417 rmoveto
          -91 -13 -82 -59 -114 hhcurveto
          -113 -70 57 93 -4 hvcurveto
          -162 hlineto
          -173 -4 131 -107 213 hhcurveto
          207 155 113 167 26 hvcurveto
          endchar
        </CharString>
        <CharString name="Abrevetilde">
          1206 2124 rmoveto
          -60 -6 -30 -34 -46 -93 -42 118 -153 hhcurveto
          -137 -108 231 callgsubr
          39 39 53 197 callsubr
          14 hvcurveto
          -797 -1553 -103 callsubr
          -442 397 rmoveto
          -161 6 130 -99 205 hhcurveto
          197 153 105 155 34 hvcurveto
          -170 hlineto
          -79 -22 -80 -51 -103 hhcurveto
          -104 -70 50 80 -13 hvcurveto
          endchar
        </CharString>
        <CharString name="Acaron">
          1023 1601 rmoveto
          339 324 rlineto
          -230 hlineto
          -198 -16 callsubr
          226 -324 rlineto
          -245 -1030 -103 callsubr
          endchar
        </CharString>
        <CharString name="Acircumflex">
          962 1802 rmoveto
          16 hlineto
          128 102 callgsubr
          -226 324 rlineto
          24 callgsubr
          -204 -1035 -103 callsubr
          endchar
        </CharString>
        <CharString name="Acircumflexacute">
          560 571 -103 callsubr
          -194 386 rmoveto
          -321 117 callgsubr
          351 301 rmoveto
          -242 -267 rlineto
          206 hlineto
          266 267 rlineto
          endchar
        </CharString>
        <CharString name="Acircumflexdotbelow">
          962 1802 rmoveto
          16 hlineto
          128 102 callgsubr
          -226 324 rlineto
          24 callgsubr
          -187 -1775 rmoveto
          -52 callsubr
          79 66 67 82 81 -66 67 -79 hvcurveto
          -17 740 -103 callsubr
          endchar
        </CharString>
        <CharString name="Acircumflexgrave">
          1434 1863 rmoveto
          -151 146 callsubr
          -679 -1292 -103 callsubr
          -191 386 rmoveto
          17 callgsubr
          -234 250 rlineto
          endchar
        </CharString>
        <CharString name="Acircumflexhookabove">
          560 571 -103 callsubr
          -191 386 rmoveto
          17 callgsubr
          -234 250 rlineto
          59 185 62 callsubr
        </CharString>
        <CharString name="Acircumflextilde">
          1211 2138 rmoveto
          106 callsubr
          177 callsubr
          -803 -1567 -103 callsubr
          -192 386 rmoveto
          -322 117 callgsubr
          endchar
        </CharString>
        <CharString name="Acyrillic">
          560 571 -72 callsubr
        </CharString>
        <CharString name="Adblgrave">
          1217 1606 rmoveto
          197 callgsubr
          -205 hmoveto
          197 callgsubr
          -56 -1035 -103 callsubr
          endchar
        </CharString>
        <CharString name="Adieresis">
          -15 callsubr
        </CharString>
        <CharString name="Adieresismacron">
          560 571 -103 callsubr
          -183 252 rmoveto
          74 88 callsubr
          -74 85 callsubr
          vhcurveto
          301 133 2 callgsubr
          -512 273 rmoveto
          -26 -148 rlineto
          704 hlineto
          25 148 rlineto
          endchar
        </CharString>
        <CharString name="Adotaccent">
          944 1615 40 callsubr
          -384 -1044 -72 callsubr
        </CharString>
        <CharString name="Adotbelow">
          577 -169 rmoveto
          -52 callsubr
          79 66 67 82 81 -66 67 -79 hvcurveto
          -17 740 rmoveto
          282 619 rlineto
          10 hlineto
          60 -619 rlineto
          302 -571 rmoveto
          -45 callsubr
          37 -379 rlineto
          endchar
        </CharString>
        <CharString name="Adotmacron">
          560 571 -103 callsubr
          31 263 rmoveto
          77 -61 61 -74 179 callsubr
          61 61 76 vhcurveto
          -418 395 rmoveto
          -25 -148 rlineto
          704 hlineto
          25 148 rlineto
          endchar
        </CharString>
        <CharString name="Agrave">
          1009 1606 rmoveto
          -204 312 160 callgsubr
          234 -312 rlineto
          -226 -1035 -72 callsubr
        </CharString>
        <CharString name="Ahookabove">
          924 1565 rmoveto
          127 41 80 224 callgsubr
          -129 -50 -52 -9 -16 -41 vhcurveto
          -14 -133 rlineto
          12 26 47 9 44 hhcurveto
          63 36 -27 -44 -43 -42 -45 -73 -24 hvcurveto
          -299 -1093 -72 callsubr
        </CharString>
        <CharString name="Ainvertedbreve">
          560 571 -103 callsubr
          -278 156 rmoveto
          30 callsubr
          -213 -166 159 callgsubr
          endchar
        </CharString>
        <CharString name="Alphagreek">
          560 571 -72 callsubr
        </CharString>
        <CharString name="Alphatonosgreek">
          644 43 callgsubr
          -237 hlineto
          -163 -363 rlineto
          168 hlineto
          247 -509 rmoveto
          243 619 rlineto
          10 hlineto
          22 -619 rlineto
          20 -571 rmoveto
          241 hlineto
          -106 -64 callgsubr
          -277 hlineto
          -614 -88 callsubr
          236 hlineto
          149 379 rlineto
          358 hlineto
          endchar
        </CharString>
        <CharString name="Amacron">
          560 571 -103 callsubr
          -420 395 193 callgsubr
        </CharString>
        <CharString name="Aogonek">
          843 1190 rmoveto
          9 hlineto
          63 -619 rlineto
          -359 hlineto
          408 -543 rmoveto
          -131 -66 -72 -89 -104 vvcurveto
          -127 103 -87 149 48 179 callgsubr
          -4 -17 -24 -2 -25 hhcurveto
          -77 -52 43 63 89 89 66 165 32 hvcurveto
          -29 callsubr
          -279 hlineto
          -69 callgsubr
          177 379 rlineto
          453 hlineto
          endchar
        </CharString>
        <CharString name="Aring">
          925 1845 rmoveto
          56 42 -41 -56 -55 -42 -41 -56 -56 -42 41 55 218 callsubr
          85 111 111 -85 84 -113 -113 -86 -84 -111 -111 86 -85 113 hvcurveto
          -365 -982 -72 callsubr
        </CharString>
        <CharString name="Aringacute">
          1229 2184 rmoveto
          -218 hlineto
          -138 -182 rlineto
          193 hlineto
          -135 -163 rmoveto
          56 42 -41 -56 -56 -41 -41 -57 -56 -42 41 56 218 callsubr
          84 112 110 -85 84 -113 -113 -85 -84 -110 -112 86 -84 112 hvcurveto
          -371 -976 -103 callsubr
          endchar
        </CharString>
        <CharString name="Aringbelow">
          574 -467 rmoveto
          -62 -47 48 62 62 47 48 62 61 47 -48 -62 -62 -47 -48 -61 hvcurveto
          347 vmoveto
          -129 -105 -106 -131 -130 105 -107 129 128 105 107 130 131 -105 106 -128 hvcurveto
          -14 691 rmoveto
          282 619 rlineto
          10 hlineto
          60 -619 rlineto
          302 -571 rmoveto
          -45 callsubr
          37 -379 rlineto
          endchar
        </CharString>
        <CharString name="Atilde">
          560 571 -103 callsubr
          133 442 rmoveto
          -89 -11 -33 -47 -51 -86 -34 121 callsubr
          -135 -94 -113 -176 -17 hvcurveto
          154 204 callsubr
          52 94 67 callgsubr
          endchar
        </CharString>
        <CharString name="B">
          -92 callgsubr
          endchar
        </CharString>
        <CharString name="Bdotaccent">
          -92 callgsubr
          482 172 -37 callgsubr
          endchar
        </CharString>
        <CharString name="Bdotbelow">
          -92 callgsubr
          107 -1915 -20 callgsubr
        </CharString>
        <CharString name="Becyrillic">
          705 hmoveto
          324 232 203 281 245 -166 156 -264 hvcurveto
          -274 hlineto
          63 347 rlineto
          648 79 callsubr
          -890 -99 callgsubr
          277 205 rmoveto
          88 485 rlineto
          237 hlineto
          161 90 -77 -138 -159 -128 -111 -186 hvcurveto
          endchar
        </CharString>
        <CharString name="Betagreek">
          -92 callgsubr
          endchar
        </CharString>
        <CharString name="Blinebelow">
          -92 callgsubr
          439 -1856 19 callsubr
          -29 -165 rlineto
          endchar
        </CharString>
        <CharString name="C">
          -95 callgsubr
          endchar
        </CharString>
        <CharString name="Cacute">
          -95 callgsubr
          -498 1177 rmoveto
          236 -38 callgsubr
        </CharString>
        <CharString name="Ccaron">
          -95 callgsubr
          -459 1172 rmoveto
          219 -48 callgsubr
          -211 hlineto
          endchar
        </CharString>
        <CharString name="Ccedilla">
          1353 944 -77 callgsubr
        </CharString>
        <CharString name="Ccedillaacute">
          1349 112 callgsubr
          346 -662 -77 callgsubr
        </CharString>
        <CharString name="Ccircumflex">
          -95 callgsubr
          -173 1501 rmoveto
          -218 -40 callsubr
          210 hlineto
          endchar
        </CharString>
        <CharString name="Cdotaccent">
          -95 callgsubr
          -320 1186 -50 callgsubr
          endchar
        </CharString>
        <CharString name="Checyrillic">
          1399 43 callgsubr
          -241 hlineto
          -46 callsubr
          -109 -616 rlineto
          241 hlineto
          endchar
        </CharString>
        <CharString name="Chigreek">
          -63 callsubr
          endchar
        </CharString>
        <CharString name="D">
          -94 callsubr
          endchar
        </CharString>
        <CharString name="Dcaron">
          -94 callsubr
          145 366 1 callgsubr
        </CharString>
        <CharString name="Dcircumflexbelow">
          -94 callsubr
          -192 -1397 rmoveto
          -332 -13 callgsubr
          -208 351 rlineto
          endchar
        </CharString>
        <CharString name="Dcommaaccent">
          -94 callsubr
          -103 -1739 -25 callgsubr
          endchar
        </CharString>
        <CharString name="Dcroat">
          429 200 rmoveto
          78 440 rlineto
          273 hlineto
          33 189 rlineto
          -272 hlineto
          74 414 rlineto
          141 hlineto
          224 114 -116 -227 -50 -3 -48 -4 -40 hvcurveto
          -2 -20 -15 -87 -3 -14 rrcurveto
          -292 -53 -162 -149 -261 hhcurveto
          -166 1243 rmoveto
          -108 -614 rlineto
          -143 hlineto
          -33 -189 rlineto
          143 hlineto
          -113 -640 rlineto
          421 hlineto
          388 242 215 404 73 hvcurveto
          3 21 18 98 2 21 rrcurveto
          5 42 2 52 53 vvcurveto
          338 -202 199 -342 vhcurveto
          endchar
        </CharString>
        <CharString name="Ddotaccent">
          -94 callsubr
          284 380 153 callgsubr
          endchar
        </CharString>
        <CharString name="Ddotbelow">
          -94 callsubr
          -94 -1701 -82 callgsubr
          endchar
        </CharString>
        <CharString name="Decyrillic">
          1043 hmoveto
          -50 -285 rlineto
          220 hlineto
          85 496 rlineto
          -157 hlineto
          219 1232 rlineto
          -832 hlineto
          -196 -834 -56 -239 -53 -106 -86 -53 rlinecurve
          -84 hlineto
          -86 -496 rlineto
          220 hlineto
          50 285 rlineto
          472 1233 rmoveto
          375 hlineto
          -184 -1022 rlineto
          -495 hlineto
          3 21 58 53 44 105 44 188 rlinecurve
          endchar
        </CharString>
        <CharString name="Deltagreek">
          75 hmoveto
          1112 hlineto
          25 147 -186 1296 rlineto
          -278 hlineto
          -648 -1296 rlineto
          274 64 rmoveto
          3 15 465 969 rlineto
          10 hlineto
          115 -969 -2 -15 rlineto
          endchar
        </CharString>
        <CharString name="Djecyrillic">
          1326 504 rmoveto
          241 -134 143 -213 -107 -94 -33 -46 -65 vhcurveto
          -9 hlineto
          77 424 rlineto
          357 hlineto
          35 210 rlineto
          -919 hlineto
          -35 -210 rlineto
          339 hlineto
          -219 -1233 159 callsubr
          105 593 rlineto
          47 44 88 38 94 hhcurveto
          127 68 -82 -139 -172 -101 -121 -138 -28 -36 5 8 -24 hvcurveto
          -36 -204 rlineto
          -10 24 68 -11 54 hhcurveto
          273 182 234 318 hvcurveto
          endchar
        </CharString>
        <CharString name="Dlinebelow">
          -94 callsubr
          239 -1642 15 callgsubr
        </CharString>
        <CharString name="Dzecyrillic">
          -104 callgsubr
          endchar
        </CharString>
        <CharString name="Dzhecyrillic">
          469 -285 rmoveto
          227 hlineto
          50 285 rlineto
          426 -59 callgsubr
          -242 hlineto
          -218 152 callgsubr
          -595 170 callgsubr
          425 hlineto
          endchar
        </CharString>
        <CharString name="E">
          1133 211 -34 callgsubr
        </CharString>
        <CharString name="Eacute">
          1133 211 -104 callsubr
          -320 1606 rmoveto
          236 -38 callgsubr
        </CharString>
        <CharString name="Ebreve">
          1133 211 -104 callsubr
          -164 1599 rmoveto
          213 165 129 195 35 hvcurveto
          -177 hlineto
          105 callsubr
          endchar
        </CharString>
        <CharString name="Ecaron">
          1133 211 -104 callsubr
          -281 1601 rmoveto
          219 -48 callgsubr
          -211 hlineto
          endchar
        </CharString>
        <CharString name="Ecedilla">
          1316 1232 -13 callsubr
        </CharString>
        <CharString name="Ecedillabreve">
          1170 1923 rmoveto
          105 callsubr
          213 165 129 195 35 hvcurveto
          -31 -691 -13 callsubr
        </CharString>
        <CharString name="Ecircumflex">
          1133 211 -104 callsubr
          6 1930 rmoveto
          -219 -40 callsubr
          211 hlineto
          endchar
        </CharString>
        <CharString name="Ecircumflexacute">
          1133 211 -104 callsubr
          91 1863 rmoveto
          205 hlineto
          267 142 callsubr
          236 hlineto
          184 146 rlineto
          16 87 callsubr
          223 hlineto
          endchar
        </CharString>
        <CharString name="Ecircumflexbelow">
          1133 211 -104 callsubr
          -607 -162 -42 callgsubr
        </CharString>
        <CharString name="Ecircumflexdotbelow">
          1133 211 -104 callsubr
          6 1930 rmoveto
          -219 -40 callsubr
          211 hlineto
          -740 -2072 -83 callsubr
          endchar
        </CharString>
        <CharString name="Ecircumflexgrave">
          1133 211 -104 callsubr
          348 1863 rmoveto
          -150 267 rlineto
          -219 hlineto
          174 -267 rlineto
          -169 -34 110 callsubr
          endchar
        </CharString>
        <CharString name="Ecircumflexhookabove">
          1133 211 -104 callsubr
          -16 1829 110 callsubr
          -174 435 rmoveto
          11 34 35 6 34 hhcurveto
          57 31 -24 -42 -41 -39 -42 -72 -23 hvcurveto
          69 -89 rlineto
          123 38 72 82 104 vvcurveto
          99 -79 65 -114 -43 -44 -7 -13 -43 vhcurveto
          endchar
        </CharString>
        <CharString name="Ecircumflextilde">
          1133 211 -104 callsubr
          -17 1829 rmoveto
          -235 hlineto
          -321 -250 rlineto
          237 203 callgsubr
          132 183 callgsubr
          -450 440 rmoveto
          95 14 -123 163 98 callgsubr
          -15 hvcurveto
          152 hlineto
          71 9 32 38 48 hhcurveto
          endchar
        </CharString>
        <CharString name="Ecyrillic">
          -41 callgsubr
          endchar
        </CharString>
        <CharString name="Edblgrave">
          1043 75 callsubr
          -218 114 callgsubr
          306 -1395 -34 callgsubr
        </CharString>
        <CharString name="Edieresis">
          1133 211 -104 callsubr
          -362 1633 rmoveto
          161 callsubr
          438 hmoveto
          73 63 63 75 76 -63 199 callgsubr
        </CharString>
        <CharString name="Edotaccent">
          1133 211 -104 callsubr
          -142 1615 -50 callgsubr
          endchar
        </CharString>
        <CharString name="Edotbelow">
          1133 211 -104 callsubr
          -508 139 callgsubr
          endchar
        </CharString>
        <CharString name="Efcyrillic">
          379 771 rmoveto
          37 234 109 116 191 5 -141 -787 rcurveline
          -137 20 -76 93 155 vvcurveto
          29 1 21 6 43 vhcurveto
          1 14 7 41 2 16 rrcurveto
          976 -116 rmoveto
          3 17 10 63 1 15 rrcurveto
          5 29 2 31 42 vvcurveto
          255 -142 157 -252 32 vhcurveto
          30 173 rlineto
          -240 hlineto
          -28 -157 -327 -5 -191 -164 -59 -347 rlinecurve
          -3 -18 -11 -62 -1 -17 rrcurveto
          -4 -29 -2 -33 -39 vvcurveto
          -256 140 -156 255 -32 vhcurveto
          -32 -180 rlineto
          241 hlineto
          28 164 324 4 195 168 58 345 rlinecurve
          -408 454 rmoveto
          140 -22 73 -91 -155 vvcurveto
          -27 -2 -26 -6 -39 vhcurveto
          -1 -13 -5 -41 -3 -15 -37 -234 -109 -115 -190 -7 rrcurveto
          endchar
        </CharString>
        <CharString name="Egrave">
          818 1918 12 callsubr
          112 -1395 -34 callgsubr
        </CharString>
        <CharString name="Ehookabove">
          1133 211 -104 callsubr
          -328 227 callgsubr
          27 46 9 44 hhcurveto
          64 36 -27 -44 -43 -42 -45 -73 118 callsubr
        </CharString>
        <CharString name="Einvertedbreve">
          1133 211 -104 callsubr
          -101 -10 callsubr
        </CharString>
        <CharString name="Elcyrillic">
          1399 43 callgsubr
          -875 hlineto
          43 callsubr
          -219 152 callgsubr
          238 hlineto
          endchar
        </CharString>
        <CharString name="Emacron">
          1133 211 -104 callsubr
          188 178 callgsubr
          endchar
        </CharString>
        <CharString name="Emacronacute">
          574 1611 219 callsubr
          458 122 rmoveto
          248 249 rlineto
          -244 hlineto
          -223 -249 rlineto
          295 -1670 -34 callgsubr
        </CharString>
        <CharString name="Emacrongrave">
          1133 211 -104 callsubr
          -13 163 callsubr
          -305 -270 200 callgsubr
        </CharString>
        <CharString name="Emcyrillic">
          -79 callsubr
          endchar
        </CharString>
        <CharString name="Encyrillic">
          -82 callsubr
          endchar
        </CharString>
        <CharString name="Eogonek">
          828 -15 rmoveto
          -120 -50 -57 -80 -102 vvcurveto
          -114 105 -84 145 48 179 callgsubr
          -3 -16 -27 -3 -23 hhcurveto
          -80 -49 39 63 90 88 69 167 35 hvcurveto
          105 callgsubr
          -650 hlineto
          77 422 rlineto
          607 hlineto
          34 197 rlineto
          -608 hlineto
          73 402 rlineto
          644 122 callgsubr
          -887 -99 callgsubr
          619 hlineto
          endchar
        </CharString>
        <CharString name="Epsilongreek">
          1133 211 -34 callgsubr
        </CharString>
        <CharString name="Epsilontonosgreek">
          1192 211 rmoveto
          -449 hlineto
          77 422 rlineto
          412 hlineto
          34 197 rlineto
          -412 hlineto
          72 402 rlineto
          449 122 callgsubr
          -683 -99 callgsubr
          683 hlineto
          -949 1080 81 callgsubr
        </CharString>
        <CharString name="Ercyrillic">
          -76 callsubr
          endchar
        </CharString>
        <CharString name="Ereversedcyrillic">
          -99 callsubr
          endchar
        </CharString>
        <CharString name="Escyrillic">
          -95 callgsubr
          endchar
        </CharString>
        <CharString name="Etagreek">
          -82 callsubr
          endchar
        </CharString>
        <CharString name="Etatonosgreek">
          1199 hmoveto
          -65 callgsubr
          -217 hlineto
          -108 -614 rlineto
          -336 hlineto
          108 614 rlineto
          -217 -99 callgsubr
          217 hlineto
          113 639 rlineto
          336 hlineto
          -113 -639 rlineto
          -785 1080 81 callgsubr
        </CharString>
        <CharString name="Eth">
          414 211 rmoveto
          75 421 rlineto
          247 hlineto
          34 199 rlineto
          -245 hlineto
          72 404 rlineto
          146 hlineto
          217 116 -123 -234 -41 -3 -43 -4 -35 hvcurveto
          -1 -15 -15 -84 -2 -10 rrcurveto
          -295 -51 -150 -144 -268 hhcurveto
          -192 1232 rmoveto
          -108 -612 rlineto
          -127 hlineto
          -33 -199 rlineto
          125 hlineto
          -111 -632 rlineto
          473 hlineto
          387 230 212 421 73 hvcurveto
          3 16 17 95 1 17 rrcurveto
          4 39 3 47 48 vvcurveto
          350 -196 198 -345 vhcurveto
          endchar
        </CharString>
        <CharString name="Etilde">
          1133 211 -104 callsubr
          -299 1752 rmoveto
          93 31 180 callsubr
          95 49 callsubr
          -10 -33 -47 -52 120 callgsubr
          227 callsubr
          92 10 34 47 52 hhcurveto
          endchar
        </CharString>
        <CharString name="Etildebelow">
          1133 211 -104 callsubr
          -650 -315 rmoveto
          84 -59 callsubr
          -27 -44 -54 -64 callsubr
          endchar
        </CharString>
        <CharString name="Euro">
          1449 1442 rmoveto
          16 -49 -104 12 -87 hhcurveto
          -386 -262 -182 -342 -113 hvcurveto
          -190 hlineto
          -24 -138 rlineto
          174 hlineto
          -14 -53 -8 -51 -2 -57 rrcurveto
          -179 hlineto
          -24 -139 rlineto
          208 hlineto
          -334 43 271 -200 418 hhcurveto
          11 48 0 1 12 hvcurveto
          36 215 rlineto
          -1 -5 -40 -1 -21 hhcurveto
          -281 -179 114 206 -53 hvcurveto
          518 hlineto
          24 139 rlineto
          -559 hlineto
          62 5 44 18 55 vhcurveto
          565 hlineto
          23 138 rlineto
          -538 hlineto
          198 88 179 110 246 hhcurveto
          68 75 -8 -14 52 hvcurveto
          endchar
        </CharString>
        <CharString name="F">
          7 callsubr
          endchar
        </CharString>
        <CharString name="Fdotaccent">
          7 callsubr
          753 1615 -50 callgsubr
          endchar
        </CharString>
        <CharString name="G">
          -101 callgsubr
          endchar
        </CharString>
        <CharString name="Gacute">
          -101 callgsubr
          -511 1183 13 callgsubr
          endchar
        </CharString>
        <CharString name="Gammagreek">
          244 hmoveto
          242 hlineto
          219 1232 rlineto
          646 79 callsubr
          -888 hlineto
          endchar
        </CharString>
        <CharString name="Gbreve">
          -101 callgsubr
          -356 1176 29 callsubr
          -170 hlineto
          -183 -28 143 167 callgsubr
          endchar
        </CharString>
        <CharString name="Gcaron">
          -101 callgsubr
          -472 1178 1 callsubr
        </CharString>
        <CharString name="Gcircumflex">
          -101 callgsubr
          -186 1507 0 callsubr
        </CharString>
        <CharString name="Gcommaaccent">
          -101 callgsubr
          -645 -927 -25 callgsubr
          endchar
        </CharString>
        <CharString name="Gdotaccent">
          -101 callgsubr
          -333 1192 40 callsubr
          endchar
        </CharString>
        <CharString name="Gecyrillic">
          1468 1443 rmoveto
          -1158 -8 callsubr
          endchar
        </CharString>
        <CharString name="Geupturncyrillic">
          1517 1722 rmoveto
          -218 hlineto
          -48 -279 rlineto
          -941 -8 callsubr
          49 282 rlineto
          1 hlineto
          endchar
        </CharString>
        <CharString name="Gjecyrillic">
          1383 112 callgsubr
          427 -163 rmoveto
          -1158 -8 callsubr
          endchar
        </CharString>
        <CharString name="Gmacron">
          -101 callgsubr
          -4 1249 rmoveto
          29 166 rlineto
          -26 callgsubr
          endchar
        </CharString>
        <CharString name="H">
          -82 callsubr
          endchar
        </CharString>
        <CharString name="Hardsigncyrillic">
          707 937 rmoveto
          89 506 rlineto
          -525 hlineto
          -34 -210 rlineto
          282 hlineto
          -219 -1233 rlineto
          467 hlineto
          330 205 208 328 242 -150 159 -230 hvcurveto
          -255 -203 rmoveto
          187 hlineto
          130 75 -80 -136 -191 -115 -121 -188 hvcurveto
          -184 hlineto
          endchar
        </CharString>
        <CharString name="Hbar">
          533 835 rmoveto
          43 240 rlineto
          491 hlineto
          -43 -240 rlineto
          -520 -206 rmoveto
          479 hlineto
          -112 -629 206 callgsubr
          190 1071 rlineto
          111 hlineto
          29 172 rlineto
          -111 hlineto
          35 200 rlineto
          -242 hlineto
          -35 -200 rlineto
          -479 hlineto
          35 200 rlineto
          -242 hlineto
          -36 -200 rlineto
          -108 hlineto
          -29 -172 rlineto
          108 hlineto
          -189 -1071 206 callgsubr
          endchar
        </CharString>
        <CharString name="Hbrevebelow">
          -82 callsubr
          -312 -471 48 callgsubr
        </CharString>
        <CharString name="Hcaron">
          -82 callsubr
          -100 1601 1 callgsubr
        </CharString>
        <CharString name="Hcedilla">
          370 hmoveto
          111 629 rlineto
          527 hlineto
          -112 -629 rlineto
          238 -59 callgsubr
          -238 hlineto
          -106 -603 rlineto
          -527 hlineto
          107 603 rlineto
          -238 -99 callgsubr
          75 hlineto
          -43 -121 -19 -109 rlineto
          45 hlineto
          84 42 -22 186 callgsubr
          -39 -62 9 10 -27 102 callsubr
          46 171 callsubr
          endchar
        </CharString>
        <CharString name="Hcircumflex">
          -82 callsubr
          186 1930 0 callsubr
        </CharString>
        <CharString name="Hdieresis">
          -82 callsubr
          -182 1633 rmoveto
          73 63 63 75 76 -63 53 callsubr
          -62 -63 -76 -75 62 -63 73 hvcurveto
          endchar
        </CharString>
        <CharString name="Hdotaccent">
          -82 callsubr
          39 1615 140 callsubr
        </CharString>
        <CharString name="Hdotbelow">
          -82 callsubr
          -319 139 callgsubr
          endchar
        </CharString>
        <CharString name="I">
          1050 hmoveto
          51 callsubr
        </CharString>
        <CharString name="IAcyrillic">
          1005 540 -73 callgsubr
        </CharString>
        <CharString name="IJ">
          858 -35 -9 callsubr
        </CharString>
        <CharString name="IJacute">
          466 1606 13 callgsubr
          305 -312 70 callgsubr
          -537 -1953 -9 callsubr
        </CharString>
        <CharString name="IUcyrillic">
          -97 callsubr
          endchar
        </CharString>
        <CharString name="Iacute">
          1050 hmoveto
          -101 callsubr
          550 1606 rmoveto
          236 -38 callgsubr
        </CharString>
        <CharString name="Ibreve">
          1050 hmoveto
          -101 callsubr
          706 1599 rmoveto
          212 166 129 195 35 hvcurveto
          -177 hlineto
          -107 -21 -92 -72 -112 176 callgsubr
          143 -141 214 hhcurveto
          endchar
        </CharString>
        <CharString name="Icaron">
          1050 hmoveto
          -101 callsubr
          589 1601 rmoveto
          219 -48 callgsubr
          -211 hlineto
          endchar
        </CharString>
        <CharString name="Icircumflex">
          1050 hmoveto
          -101 callsubr
          875 1930 rmoveto
          -218 -40 callsubr
          210 hlineto
          endchar
        </CharString>
        <CharString name="Icyrillic">
          1050 hmoveto
          51 callsubr
        </CharString>
        <CharString name="Idblgrave">
          1031 75 callsubr
          -219 hlineto
          209 87 callgsubr
          235 44 callgsubr
        </CharString>
        <CharString name="Idieresis">
          1050 hmoveto
          -101 callsubr
          507 1633 rmoveto
          73 63 63 79 callgsubr
          -63 72 hvcurveto
          439 hmoveto
          -71 callgsubr
          endchar
        </CharString>
        <CharString name="Idieresisacute">
          1050 hmoveto
          -101 callsubr
          593 1896 rmoveto
          212 hlineto
          257 234 rlineto
          -246 hlineto
          -320 -566 rmoveto
          169 callgsubr
          73 -57 113 callgsubr
          429 hmoveto
          -7 callsubr
          endchar
        </CharString>
        <CharString name="Idotaccent">
          1050 hmoveto
          -101 callsubr
          728 1615 -50 callgsubr
          endchar
        </CharString>
        <CharString name="Idotbelow">
          1050 hmoveto
          -101 callsubr
          360 75 callgsubr
          endchar
        </CharString>
        <CharString name="Iecyrillic">
          1133 211 -34 callgsubr
        </CharString>
        <CharString name="Igrave">
          806 1918 12 callsubr
          41 44 callgsubr
        </CharString>
        <CharString name="Ihookabove">
          1050 hmoveto
          -101 callsubr
          542 227 callgsubr
          27 46 9 44 hhcurveto
          63 37 -27 -44 -43 -43 -45 -72 118 callsubr
        </CharString>
        <CharString name="Iicyrillic">
          389 1443 -68 callgsubr
        </CharString>
        <CharString name="Iinvertedbreve">
          1050 hmoveto
          -101 callsubr
          769 1923 rmoveto
          -213 -166 -129 -195 -34 hvcurveto
          177 hlineto
          107 21 91 165 callsubr
          -10 hvcurveto
          171 hlineto
          183 27 -143 239 callgsubr
        </CharString>
        <CharString name="Iishortcyrillic">
          1144 1936 rmoveto
          31 callgsubr
          215 2 callsubr
          -936 -493 -68 callgsubr
        </CharString>
        <CharString name="Imacron">
          1050 hmoveto
          -101 callsubr
          1058 1672 -50 callsubr
          endchar
        </CharString>
        <CharString name="Iocyrillic">
          1133 211 -104 callsubr
          -362 1633 rmoveto
          161 callsubr
          438 hmoveto
          73 63 63 75 76 -63 199 callgsubr
        </CharString>
        <CharString name="Iogonek">
          784 hmoveto
          -2 -15 rlineto
          -114 -47 -63 -81 -99 vvcurveto
          -118 104 -85 147 47 179 callgsubr
          -4 -20 -21 -2 -26 hhcurveto
          -76 -52 41 61 90 89 70 158 34 hvcurveto
          35 205 rlineto
          -296 hlineto
          184 1027 rlineto
          296 hlineto
          105 callgsubr
          -834 hlineto
          -35 -208 rlineto
          297 hlineto
          -184 -1027 rlineto
          -297 hlineto
          -35 -208 rlineto
          endchar
        </CharString>
        <CharString name="Iotadieresisgreek">
          1050 hmoveto
          -101 callsubr
          507 1633 rmoveto
          73 63 63 79 callgsubr
          -63 72 hvcurveto
          439 hmoveto
          -71 callgsubr
          endchar
        </CharString>
        <CharString name="Iotagreek">
          1050 hmoveto
          51 callsubr
        </CharString>
        <CharString name="Iotatonosgreek">
          1184 hmoveto
          105 callgsubr
          -252 hlineto
          184 1027 rlineto
          252 hlineto
          105 callgsubr
          -716 hlineto
          -35 -208 rlineto
          251 hlineto
          -185 -1027 rlineto
          -250 hlineto
          -35 -208 rlineto
          -215 1080 -5 callgsubr
        </CharString>
        <CharString name="Iotatonosgreek.1">
          915 hmoveto
          -65 callgsubr
          -241 -99 callgsubr
          -364 1080 -5 callgsubr
        </CharString>
        <CharString name="Itilde">
          1050 hmoveto
          -101 callsubr
          571 1752 -17 callsubr
        </CharString>
        <CharString name="Itildebelow">
          1050 hmoveto
          -101 callsubr
          218 -315 rmoveto
          85 39 -154 162 hhcurveto
          141 147 callsubr
          -7 -28 -44 -54 -85 -40 -30 callsubr
          7 29 46 54 hhcurveto
          endchar
        </CharString>
        <CharString name="J">
          -42 callsubr
          endchar
        </CharString>
        <CharString name="Jcircumflex">
          -42 callsubr
          488 1959 104 callgsubr
        </CharString>
        <CharString name="Jecyrillic">
          -42 callsubr
          endchar
        </CharString>
        <CharString name="K">
          -79 callgsubr
          endchar
        </CharString>
        <CharString name="Kacute">
          -79 callgsubr
          -452 176 callsubr
          endchar
        </CharString>
        <CharString name="Kacyrillic">
          629 43 callgsubr
          -239 hlineto
          -254 -1443 52 callsubr
          724 720 rlineto
          -280 hlineto
          -623 -627 rlineto
          -39 hlineto
          endchar
        </CharString>
        <CharString name="Kappagreek">
          -79 callgsubr
          endchar
        </CharString>
        <CharString name="Kcaron">
          -79 callgsubr
          -413 1601 rmoveto
          218 -48 callgsubr
          -210 hlineto
          endchar
        </CharString>
        <CharString name="Kcommaaccent">
          -79 callgsubr
          -639 -504 -25 callgsubr
          endchar
        </CharString>
        <CharString name="Kdotbelow">
          -79 callgsubr
          -630 75 callgsubr
          endchar
        </CharString>
        <CharString name="Kjecyrillic">
          717 176 callsubr
          -400 -475 rmoveto
          -239 hlineto
          -254 -1443 52 callsubr
          724 720 rlineto
          -280 hlineto
          -623 -627 rlineto
          -39 hlineto
          endchar
        </CharString>
        <CharString name="Klinebelow">
          -79 callgsubr
          -297 -407 15 callgsubr
        </CharString>
        <CharString name="L">
          -57 callgsubr
          endchar
        </CharString>
        <CharString name="Lacute">
          -57 callgsubr
          -638 1606 13 callgsubr
          endchar
        </CharString>
        <CharString name="Lambdagreek">
          63 hmoveto
          252 hlineto
          526 1180 rlineto
          10 hlineto
          101 -1180 rlineto
          247 hlineto
          -173 181 callgsubr
          endchar
        </CharString>
        <CharString name="Lcaron">
          1024 43 callgsubr
          -86 -492 rlineto
          159 hlineto
          128 492 rlineto
          -53 -1228 rmoveto
          -653 hlineto
          218 1228 rlineto
          26 callsubr
          891 hlineto
          endchar
        </CharString>
        <CharString name="Lcircumflexbelow">
          -57 callgsubr
          -602 -162 -6 callgsubr
        </CharString>
        <CharString name="Lcommaaccent">
          -57 callgsubr
          -513 -504 rmoveto
          180 357 97 callgsubr
          -152 243 callsubr
        </CharString>
        <CharString name="Ldot">
          -57 callgsubr
          11 925 83 callgsubr
          endchar
        </CharString>
        <CharString name="Ldotbelow">
          -57 callgsubr
          -503 -466 -20 callgsubr
        </CharString>
        <CharString name="Ldotbelowmacron">
          -57 callgsubr
          -503 -466 -44 callgsubr
          373 2138 -50 callsubr
          endchar
        </CharString>
        <CharString name="Ljecyrillic">
          906 734 rmoveto
          80 hlineto
          97 53 -70 -129 -197 -100 -136 -145 hvcurveto
          -80 hlineto
          -220 1055 rmoveto
          214 hlineto
          -222 -1257 rlineto
          307 hlineto
          275 176 229 347 222 -113 136 -197 hvcurveto
          -80 hlineto
          91 509 rlineto
          -617 hlineto
          -129 -674 rlineto
          -440 -91 -37 -121 -90 hhcurveto
          -13 -18 4 4 -10 hvcurveto
          -38 -215 rlineto
          -6 18 39 -6 38 hhcurveto
          217 64 173 598 121 hvcurveto
          endchar
        </CharString>
        <CharString name="Llinebelow">
          -57 callgsubr
          -171 -407 19 callsubr
          -29 -165 rlineto
          endchar
        </CharString>
        <CharString name="Lslash">
          519 215 rmoveto
          81 457 532 268 36 210 -531 -270 100 563 rlineto
          -239 hlineto
          -123 -697 -193 -98 -35 -204 192 97 -95 -541 rlineto
          891 hlineto
          37 215 rlineto
          endchar
        </CharString>
        <CharString name="M">
          -79 callsubr
          endchar
        </CharString>
        <CharString name="Macute">
          -79 callsubr
          469 1606 rmoveto
          236 -38 callgsubr
        </CharString>
        <CharString name="Mdotaccent">
          -79 callsubr
          647 125 callsubr
        </CharString>
        <CharString name="Mdotbelow">
          -79 callsubr
          279 139 callgsubr
          endchar
        </CharString>
        <CharString name="Mugreek">
          -79 callsubr
          endchar
        </CharString>
        <CharString name="N">
          349 hmoveto
          -86 callgsubr
          endchar
        </CharString>
        <CharString name="Nacute">
          349 hmoveto
          -86 callgsubr
          628 1606 rmoveto
          236 -38 callgsubr
        </CharString>
        <CharString name="Ncaron">
          349 hmoveto
          -86 callgsubr
          667 1601 215 callsubr
          340 3 callsubr
          -15 hlineto
          -129 100 callsubr
          endchar
        </CharString>
        <CharString name="Ncircumflexbelow">
          349 hmoveto
          -86 callgsubr
          337 -162 rmoveto
          -332 -13 callgsubr
          -208 351 rlineto
          endchar
        </CharString>
        <CharString name="Ncommaaccent">
          349 hmoveto
          -86 callgsubr
          426 -504 -25 callgsubr
          endchar
        </CharString>
        <CharString name="Ndotaccent">
          349 hmoveto
          -86 callgsubr
          806 125 callsubr
        </CharString>
        <CharString name="Ndotbelow">
          349 hmoveto
          -86 callgsubr
          435 75 callgsubr
          endchar
        </CharString>
        <CharString name="Ngrave">
          805 1918 12 callsubr
          -659 -1606 rmoveto
          -86 callgsubr
          endchar
        </CharString>
        <CharString name="Njecyrillic">
          275 hmoveto
          114 644 rlineto
          301 hlineto
          -114 -644 rlineto
          288 hlineto
          286 163 178 323 229 -118 114 -200 hvcurveto
          -74 hlineto
          107 599 rlineto
          -198 hlineto
          -106 -599 rlineto
          -301 hlineto
          106 599 rlineto
          -197 -99 callgsubr
          804 649 rmoveto
          84 hlineto
          96 54 -62 -110 -178 -85 -114 -150 hvcurveto
          -82 hlineto
          endchar
        </CharString>
        <CharString name="Nlinebelow">
          349 hmoveto
          -86 callgsubr
          768 -407 15 callgsubr
        </CharString>
        <CharString name="Ntilde">
          349 hmoveto
          -86 callgsubr
          649 1752 -17 callsubr
        </CharString>
        <CharString name="Nugreek">
          349 hmoveto
          -86 callgsubr
          endchar
        </CharString>
        <CharString name="NumberSignCyrillic">
          232 callsubr
          101 -1007 rlineto
          195 -59 callgsubr
          -170 hlineto
          -180 -1003 rlineto
          -18 hlineto
          -101 1003 rlineto
          -196 -99 callgsubr
          1277 843 rmoveto
          22 124 rlineto
          -336 hlineto
          -22 -124 rlineto
          242 269 rmoveto
          95 76 77 95 95 -76 77 -95 -95 -76 -77 -95 -95 76 -77 95 hvcurveto
          endchar
        </CharString>
        <CharString name="O">
          -107 callsubr
          endchar
        </CharString>
        <CharString name="OE">
          411 874 rmoveto
          227 41 81 112 122 hhcurveto
          112 58 -81 -159 -69 -5 -55 -14 -69 hvcurveto
          -40 -219 rlineto
          -222 -40 -82 -108 -127 hhcurveto
          -100 -61 85 138 66 6 75 12 73 hvcurveto
          335 -483 rmoveto
          10 hlineto
          -32 -185 rlineto
          567 hlineto
          37 220 rlineto
          -376 hlineto
          74 406 rlineto
          341 122 callgsubr
          -341 hlineto
          240 callsubr
          376 hlineto
          37 221 rlineto
          -567 hlineto
          -41 -229 rlineto
          -10 hlineto
          167 -18 -95 96 -155 hhcurveto
          -225 -141 -179 -375 -64 hvcurveto
          -43 -250 rlineto
          -20 -116 -7 -89 -104 vvcurveto
          -248 113 -150 187 137 81 63 156 69 vhcurveto
          endchar
        </CharString>
        <CharString name="Oacute">
          -107 callsubr
          63 1419 70 callgsubr
          endchar
        </CharString>
        <CharString name="Obreve">
          -107 callsubr
          218 1412 29 callsubr
          -171 hlineto
          -183 -27 143 -141 213 hhcurveto
          endchar
        </CharString>
        <CharString name="Ocaron">
          -107 callsubr
          102 1414 1 callsubr
        </CharString>
        <CharString name="Ocircumflex">
          -107 callsubr
          388 1743 0 callsubr
        </CharString>
        <CharString name="Ocircumflexacute">
          -107 callsubr
          473 1676 rmoveto
          206 hlineto
          266 267 rlineto
          -230 hlineto
          -351 -301 109 callgsubr
          endchar
        </CharString>
        <CharString name="Ocircumflexdotbelow">
          -107 callsubr
          388 1743 -35 callgsubr
          -740 -2072 -83 callsubr
          endchar
        </CharString>
        <CharString name="Ocircumflexgrave">
          -107 callsubr
          731 1676 rmoveto
          -151 146 callsubr
          -169 -34 rmoveto
          -235 hlineto
          17 callgsubr
          endchar
        </CharString>
        <CharString name="Ocircumflexhookabove">
          -107 callsubr
          367 1642 rmoveto
          -235 hlineto
          17 callgsubr
          -175 435 62 callsubr
        </CharString>
        <CharString name="Ocircumflextilde">
          -107 callsubr
          365 1642 rmoveto
          -234 hlineto
          -322 -250 rlineto
          237 72 callsubr
          17 hlineto
          131 183 callgsubr
          -449 440 rmoveto
          177 callsubr
          -152 hlineto
          106 callsubr
          hhcurveto
          endchar
        </CharString>
        <CharString name="Ocyrillic">
          -107 callsubr
          endchar
        </CharString>
        <CharString name="Odblgrave">
          1030 53 callgsubr
          208 -312 rlineto
          198 hlineto
          -327 -730 -85 callgsubr
        </CharString>
        <CharString name="Odieresis">
          -107 callsubr
          20 1446 3 callgsubr
        </CharString>
        <CharString name="Odieresismacron">
          -107 callsubr
          441 1641 2 callgsubr
          191 273 rmoveto
          -703 hlineto
          -26 -148 rlineto
          704 hlineto
          -595 -125 2 callgsubr
          endchar
        </CharString>
        <CharString name="Odotaccent">
          -107 callsubr
          241 1428 40 callsubr
          endchar
        </CharString>
        <CharString name="Odotaccentmacron">
          922 1844 rmoveto
          179 callsubr
          61 61 76 77 -61 61 -74 hvcurveto
          -308 109 219 callsubr
          -152 -1225 -85 callgsubr
        </CharString>
        <CharString name="Odotbelow">
          -107 callsubr
          -126 -653 -83 callsubr
          endchar
        </CharString>
        <CharString name="Ograve">
          805 68 callsubr
          -522 -730 -85 callgsubr
        </CharString>
        <CharString name="Ohookabove">
          -107 callsubr
          55 1639 66 callgsubr
          endchar
        </CharString>
        <CharString name="Ohorn">
          687 -29 -96 callsubr
          endchar
        </CharString>
        <CharString name="Ohornacute">
          687 -29 -96 callsubr
          58 1419 70 callgsubr
          endchar
        </CharString>
        <CharString name="Ohorndotbelow">
          687 -29 -96 callsubr
          -126 -653 -83 callsubr
          endchar
        </CharString>
        <CharString name="Ohorngrave">
          488 876 rmoveto
          255 46 110 125 170 hhcurveto
          164 106 -118 -183 -58 -4 -43 -10 -55 108 callgsubr
          -109 -127 -172 hhcurveto
          -164 -105 119 187 53 4 45 11 67 hvcurveto
          854 64 rmoveto
          15 79 8 76 83 vvcurveto
          100 -26 90 -50 83 vhcurveto
          0 2 9 1 vvcurveto
          27 hlineto
          130 -6 93 71 36 131 8 18 23 143 15 77 rrcurveto
          -189 hlineto
          -27 -150 rlineto
          -83 -15 -50 -43 -80 -149 -47 71 -199 hhcurveto
          -308 -209 54 callgsubr
          -53 -4 -58 -99 vvcurveto
          -298 203 -207 292 315 202 195 369 66 vhcurveto
          -405 1383 12 callsubr
          endchar
        </CharString>
        <CharString name="Ohornhookabove">
          761 -3 callsubr
          -87 -1988 -96 callsubr
          endchar
        </CharString>
        <CharString name="Ohorntilde">
          687 -29 -96 callsubr
          86 1565 -17 callgsubr
        </CharString>
        <CharString name="Ohungarumlaut">
          -107 callsubr
          333 1419 44 callsubr
          -229 hlineto
          endchar
        </CharString>
        <CharString name="Oinvertedbreve">
          -107 callsubr
          282 1736 rmoveto
          -213 -166 -129 -195 -35 hvcurveto
          177 hlineto
          30 callsubr
          endchar
        </CharString>
        <CharString name="Omacron">
          -107 callsubr
          570 1485 -5 callsubr
          endchar
        </CharString>
        <CharString name="Omacronacute">
          561 1611 rmoveto
          704 hlineto
          25 148 rlineto
          -703 hlineto
          458 122 rmoveto
          247 249 rlineto
          -244 hlineto
          -222 -249 rlineto
          -339 -1005 -85 callgsubr
        </CharString>
        <CharString name="Omacrongrave">
          -107 callsubr
          369 1694 rmoveto
          -136 249 rlineto
          -230 hlineto
          161 -249 rlineto
          -305 -270 219 callsubr
          endchar
        </CharString>
        <CharString name="Omegagreek">
          830 1473 rmoveto
          -303 -201 -185 -288 -77 hvcurveto
          -12 -32 -26 -126 -5 -35 rrcurveto
          -7 -48 -4 -52 -53 vvcurveto
          -189 64 -158 112 -88 vhcurveto
          -3 -14 rlineto
          -254 hlineto
          -35 -205 rlineto
          466 hlineto
          43 254 rlineto
          -109 73 -55 139 158 vvcurveto
          38 1 37 6 40 vhcurveto
          4 44 25 126 12 31 rrcurveto
          200 52 120 116 170 hhcurveto
          195 100 -123 -223 -46 -2 -40 -12 -67 hvcurveto
          -6 -47 -25 -92 -22 -34 -47 -165 -103 -123 -135 -47 -42 -249 rcurveline
          488 hlineto
          35 205 rlineto
          -260 hlineto
          3 14 179 97 106 143 46 220 rlinecurve
          5 19 14 78 2 21 rrcurveto
          10 57 1 57 41 vvcurveto
          332 -179 189 -335 vhcurveto
          endchar
        </CharString>
        <CharString name="Omegatonosgreek">
          959 1471 rmoveto
          -281 -181 -198 -380 -67 hvcurveto
          -4 -27 -21 -116 -2 -23 rrcurveto
          -7 -48 -3 -47 -44 vvcurveto
          -164 52 -140 91 -84 vhcurveto
          -2 -15 rlineto
          -214 hlineto
          -32 -185 rlineto
          404 hlineto
          48 288 -89 63 -45 105 -1 134 rlinecurve
          37 3 49 8 48 vhcurveto
          2 20 21 112 4 30 rrcurveto
          260 47 92 111 162 hhcurveto
          156 73 -97 -189 -40 -1 -35 -10 -58 hvcurveto
          -2 -15 -12 -65 -2 -17 -46 -260 -85 -135 -151 -66 -48 -280 rcurveline
          422 hlineto
          31 185 160 callsubr
          3 15 172 111 81 147 46 258 rlinecurve
          3 21 14 77 1 19 rrcurveto
          9 55 2 60 42 vvcurveto
          316 -146 165 -280 vhcurveto
          -790 -391 -5 callgsubr
        </CharString>
        <CharString name="Omicrongreek">
          -107 callsubr
          endchar
        </CharString>
        <CharString name="Omicrontonosgreek">
          638 447 rmoveto
          52 5 56 12 68 vhcurveto
          49 281 rlineto
          236 43 100 116 122 hhcurveto
          128 57 -102 -150 -38 -7 -86 -14 -83 hvcurveto
          -43 -246 rlineto
          -244 -44 -94 -120 -132 hhcurveto
          -133 -49 110 150 hvcurveto
          671 106 rmoveto
          40 230 rlineto
          16 96 7 91 50 vvcurveto
          281 -127 172 -255 -261 -170 -190 -385 -67 vhcurveto
          -34 -197 rlineto
          -22 -126 -8 -81 -69 vvcurveto
          -289 131 -166 250 265 166 191 392 69 vhcurveto
          -1094 527 -5 callgsubr
        </CharString>
        <CharString name="Oogonek">
          856 -440 -55 callgsubr
        </CharString>
        <CharString name="Oogonekmacron">
          1276 178 callgsubr
          276 -2112 -55 callgsubr
        </CharString>
        <CharString name="Oslash">
          1033 575 -54 callgsubr
        </CharString>
        <CharString name="Oslashacute">
          1334 112 callgsubr
          41 -1031 -54 callgsubr
        </CharString>
        <CharString name="Otilde">
          -107 callsubr
          83 1565 rmoveto
          94 110 callgsubr
          -161 hhcurveto
          -135 -94 -113 -176 -17 hvcurveto
          154 204 callsubr
          52 hhcurveto
          endchar
        </CharString>
        <CharString name="Otildeacute">
          -107 callsubr
          120 1732 rmoveto
          199 hlineto
          161 229 rlineto
          -223 hlineto
          -188 -454 rmoveto
          94 16 40 callgsubr
          -10 -33 -39 -49 -93 -17 132 -164 hhcurveto
          -133 -95 -103 -157 227 callsubr
          79 10 32 40 50 hhcurveto
          endchar
        </CharString>
        <CharString name="Otildedieresis">
          -107 callsubr
          64 1708 rmoveto
          93 callgsubr
          429 hmoveto
          93 callgsubr
          -404 -218 rmoveto
          95 14 -123 163 hhcurveto
          128 97 102 140 13 hvcurveto
          -151 hlineto
          -68 -9 -32 -37 -48 -95 -14 122 -162 hhcurveto
          -130 -95 -97 -149 -14 hvcurveto
          151 hlineto
          71 9 32 39 48 hhcurveto
          endchar
        </CharString>
        <CharString name="Otildemacron">
          -107 callsubr
          614 1775 rmoveto
          25 147 rlineto
          -703 hlineto
          -26 -147 rlineto
          184 -268 rmoveto
          94 16 40 callgsubr
          -10 -33 32 callsubr
        </CharString>
        <CharString name="P">
          -76 callsubr
          endchar
        </CharString>
        <CharString name="Pacute">
          -76 callsubr
          184 921 13 callgsubr
          endchar
        </CharString>
        <CharString name="Pdotaccent">
          -76 callsubr
          362 930 140 callsubr
        </CharString>
        <CharString name="Pecyrillic">
          1415 43 callgsubr
          -1056 -99 callgsubr
          242 225 callgsubr
          573 hlineto
          -219 -1232 206 callgsubr
          endchar
        </CharString>
        <CharString name="Phigreek">
          761 57 rmoveto
          199 2 152 89 102 141 rrcurveto
          107 147 50 202 214 vvcurveto
          293 -135 183 -244 38 vhcurveto
          27 159 rlineto
          -214 hlineto
          -27 -156 -200 -4 -151 -88 -101 -140 rlinecurve
          -107 -145 -51 -201 -217 vvcurveto
          -293 135 -183 245 -38 vhcurveto
          -27 -155 rlineto
          213 hlineto
          -368 660 rmoveto
          138 30 177 79 130 vhcurveto
          62 104 91 74 125 1 -168 -946 rcurveline
          -136 24 -83 101 197 vvcurveto
          808 296 rmoveto
          -138 -30 -177 -79 -130 vhcurveto
          -63 -104 -91 -74 -125 -1 169 946 rcurveline
          135 -24 84 -101 -197 vvcurveto
          endchar
        </CharString>
        <CharString name="Pigreek">
          137 hmoveto
          238 225 callgsubr
          517 hlineto
          -219 152 callgsubr
          238 -59 callgsubr
          -992 hlineto
          endchar
        </CharString>
        <CharString name="Psigreek">
          517 hmoveto
          231 hlineto
          55 298 317 12 149 140 64 367 rlinecurve
          109 626 rlineto
          -208 hlineto
          -104 -596 -47 -266 -79 -90 -181 -4 rlinecurve
          168 956 rlineto
          -209 hlineto
          -167 -945 rlineto
          -136 17 -57 66 130 vvcurveto
          40 6 52 14 83 vhcurveto
          97 557 rlineto
          -207 hlineto
          -96 -546 rlineto
          -15 -87 -6 -67 -58 vvcurveto
          -225 113 -113 244 -35 vhcurveto
          endchar
        </CharString>
        <CharString name="Q">
          1035 570 rmoveto
          -19 -108 -30 -86 -41 -63 -65 148 rcurveline
          -232 hlineto
          121 -276 rlineto
          -5 -21 -23 -2 -23 hhcurveto
          -166 -104 118 190 59 4 46 11 62 hvcurveto
          39 220 rlineto
          259 46 111 124 173 hhcurveto
          166 107 -120 -183 -51 -5 -56 -9 -51 hvcurveto
          -869 -109 rmoveto
          -11 -54 -4 -59 -97 vvcurveto
          -298 205 -207 293 59 55 7 13 50 vhcurveto
          67 -152 rlineto
          232 hlineto
          -108 248 115 94 78 150 36 204 rlinecurve
          41 225 rlineto
          10 65 5 60 75 vvcurveto
          305 -203 207 -300 -306 -210 -47 callgsubr
          vhcurveto
          endchar
        </CharString>
        <CharString name="R">
          -100 callgsubr
          endchar
        </CharString>
        <CharString name="Racute">
          -100 callgsubr
          561 1606 rmoveto
          236 -38 callgsubr
        </CharString>
        <CharString name="Rcaron">
          -100 callgsubr
          600 1601 rmoveto
          219 -48 callgsubr
          -211 hlineto
          endchar
        </CharString>
        <CharString name="Rcommaaccent">
          -100 callgsubr
          416 -503 14 callsubr
        </CharString>
        <CharString name="Rdblgrave">
          984 75 callsubr
          -218 114 callgsubr
          -369 -1606 rmoveto
          97 549 rlineto
          192 hlineto
          15 44 1 1 11 hvcurveto
          172 -551 rlineto
          256 hlineto
          -189 582 181 51 118 131 31 185 rlinecurve
          6 34 2 32 31 vvcurveto
          245 1 -179 152 -260 hhcurveto
          -485 -99 callgsubr
          461 1242 rmoveto
          233 hlineto
          147 85 -80 -128 -20 -2 -23 -3 -15 hvcurveto
          -147 -28 -112 -90 -185 hhcurveto
          -225 hlineto
          endchar
        </CharString>
        <CharString name="Rdotaccent">
          -100 callgsubr
          739 1615 -50 callgsubr
          endchar
        </CharString>
        <CharString name="Rdotbelow">
          -100 callgsubr
          425 -465 83 callgsubr
          endchar
        </CharString>
        <CharString name="Rdotbelowmacron">
          -100 callgsubr
          425 -465 83 callgsubr
          644 2137 -56 callsubr
          endchar
        </CharString>
        <CharString name="Rhogreek">
          -76 callsubr
          endchar
        </CharString>
        <CharString name="Rinvertedbreve">
          -100 callgsubr
          780 -10 callsubr
        </CharString>
        <CharString name="Rlinebelow">
          -100 callgsubr
          757 -407 -56 callsubr
          endchar
        </CharString>
        <CharString name="S">
          -104 callgsubr
          endchar
        </CharString>
        <CharString name="Sacute">
          -104 callgsubr
          336 1182 rmoveto
          236 -38 callgsubr
        </CharString>
        <CharString name="Sacutedotaccent">
          -104 callgsubr
          531 1182 70 callgsubr
          -499 -266 rmoveto
          79 66 67 81 81 -66 68 -79 -79 -67 -68 -81 238 callsubr
        </CharString>
        <CharString name="Scaron">
          -104 callgsubr
          375 1177 rmoveto
          219 -48 callgsubr
          -211 hlineto
          endchar
        </CharString>
        <CharString name="Scarondotaccent">
          -104 callgsubr
          518 1468 154 callsubr
          65 -313 rmoveto
          322 254 rlineto
          -235 hlineto
          -182 -146 rlineto
          -17 hlineto
          -132 146 rlineto
          -224 hlineto
          234 -254 rlineto
          endchar
        </CharString>
        <CharString name="Scedilla">
          1309 1037 rmoveto
          2 9 1 15 16 vvcurveto
          232 -204 163 -287 -302 -207 -177 -260 -182 106 -124 230 -81 vhcurveto
          114 -40 rlineto
          167 -59 62 -60 -99 vvcurveto
          -126 -116 -88 -165 -177 -125 92 131 10 1 5 1 10 vhcurveto
          -233 hlineto
          -2 -11 -1 -14 -20 vvcurveto
          -196 156 -152 230 -46 vhcurveto
          -63 -112 95 callgsubr
          -42 -24 -72 -40 -62 9 10 -26 102 callsubr
          46 58 -9 48 hhcurveto
          170 102 24 callsubr
          51 93 rlineto
          1 hlineto
          323 208 180 279 178 -103 115 -242 85 hvcurveto
          -118 42 rlineto
          -153 54 -61 62 98 vvcurveto
          121 107 83 156 146 108 -89 -119 -16 0 -3 -1 -4 vhcurveto
          endchar
        </CharString>
        <CharString name="Scircumflex">
          -104 callgsubr
          661 1506 rmoveto
          -218 -40 callsubr
          210 hlineto
          endchar
        </CharString>
        <CharString name="Scommaaccent">
          -104 callgsubr
          153 -937 14 callsubr
        </CharString>
        <CharString name="Sdotaccent">
          -104 callgsubr
          514 1191 -50 callgsubr
          endchar
        </CharString>
        <CharString name="Sdotbelow">
          -104 callgsubr
          162 -890 -20 callgsubr
        </CharString>
        <CharString name="Sdotbelowdotaccent">
          -104 callgsubr
          162 -890 -44 callgsubr
          352 2081 -50 callgsubr
          endchar
        </CharString>
        <CharString name="Shacyrillic">
          1193 hmoveto
          -65 callgsubr
          -187 hlineto
          -220 -1242 rlineto
          -280 hlineto
          221 1242 rlineto
          -188 hlineto
          -220 -1242 rlineto
          -279 hlineto
          220 1242 rlineto
          -187 72 callgsubr
        </CharString>
        <CharString name="Shchacyrillic">
          1057 -285 rmoveto
          186 hlineto
          84 486 rlineto
          -153 hlineto
          220 1242 rlineto
          -187 173 callsubr
          -188 173 callsubr
          -187 -99 callgsubr
          1063 hlineto
          endchar
        </CharString>
        <CharString name="Sigmagreek">
          134 hmoveto
          968 122 callgsubr
          -658 hlineto
          3 14 400 471 6 31 -226 490 3 15 rlineto
          636 79 callsubr
          -929 hlineto
          -29 -174 250 -542 -466 -559 rlineto
          endchar
        </CharString>
        <CharString name="Softsigncyrillic">
          530 734 rmoveto
          269 hlineto
          139 81 -79 -137 -200 -115 -114 -203 hvcurveto
          -266 hlineto
          279 -204 rmoveto
          343 208 204 332 241 -157 158 -238 hvcurveto
          -305 hlineto
          89 508 236 callsubr
          endchar
        </CharString>
        <CharString name="T">
          754 hmoveto
          -70 callsubr
          endchar
        </CharString>
        <CharString name="Taugreek">
          754 hmoveto
          -70 callsubr
          endchar
        </CharString>
        <CharString name="Tbar">
          132 callsubr
          -436 rlineto
          -290 hlineto
          -30 -179 rlineto
          289 hlineto
          -110 -617 206 callgsubr
          109 617 rlineto
          290 hlineto
          30 179 rlineto
          -288 hlineto
          77 436 rlineto
          endchar
        </CharString>
        <CharString name="Tcaron">
          754 hmoveto
          -70 callsubr
          293 1601 rmoveto
          219 -48 callgsubr
          -211 hlineto
          endchar
        </CharString>
        <CharString name="Tcedilla">
          592 -1 rmoveto
          -43 -120 -20 -109 rlineto
          45 hlineto
          84 42 -22 -42 -42 -43 -24 -71 -40 -61 9 10 -27 hvcurveto
          -22 -124 rlineto
          -14 47 171 callsubr
          44 122 -70 callsubr
          endchar
        </CharString>
        <CharString name="Tcircumflexbelow">
          754 hmoveto
          -70 callsubr
          -36 -162 -6 callgsubr
        </CharString>
        <CharString name="Tcommaaccent">
          754 hmoveto
          -70 callsubr
          54 -504 14 callsubr
        </CharString>
        <CharString name="Tdotaccent">
          754 hmoveto
          -70 callsubr
          432 1615 -50 callgsubr
          endchar
        </CharString>
        <CharString name="Tdotbelow">
          754 hmoveto
          -70 callsubr
          63 -466 -20 callgsubr
        </CharString>
        <CharString name="Tecyrillic">
          754 hmoveto
          -70 callsubr
          endchar
        </CharString>
        <CharString name="Thetagreek">
          530 617 rmoveto
          424 hlineto
          34 206 rlineto
          -424 hlineto
          710 -288 rmoveto
          63 callsubr
          11 70 4 48 82 48 callsubr
          -52 -4 -59 -99 vvcurveto
          -298 205 -207 293 316 203 196 368 66 vhcurveto
          -574 -348 rmoveto
          -181 -100 119 187 59 5 46 10 61 hvcurveto
          39 217 rlineto
          254 45 107 126 193 hhcurveto
          181 103 -120 -181 -49 -5 -57 -9 -50 -36 callgsubr
          -257 -45 -113 -131 -190 hhcurveto
          endchar
        </CharString>
        <CharString name="Thorn">
          431 232 callgsubr
          253 hlineto
          56 307 rlineto
          279 hlineto
          321 195 174 300 17 hvcurveto
          254 17 -161 160 -271 hhcurveto
          -243 hlineto
          44 248 rlineto
          -80 -461 rmoveto
          225 hlineto
          156 79 -74 -137 -12 hvcurveto
          -159 -11 -104 -89 -176 hhcurveto
          -239 hlineto
          endchar
        </CharString>
        <CharString name="Tlinebelow">
          754 hmoveto
          -70 callsubr
          395 -407 19 callsubr
          -29 -165 rlineto
          endchar
        </CharString>
        <CharString name="Tsecyrillic">
          1301 211 rmoveto
          -148 225 callgsubr
          -242 hlineto
          -218 152 callgsubr
          -536 170 callgsubr
          948 73 callsubr
          219 hlineto
          endchar
        </CharString>
        <CharString name="Tshecyrillic">
          538 hmoveto
          105 594 rlineto
          54 57 92 38 84 hhcurveto
          116 64 -69 -125 -31 -3 -33 -6 -36 hvcurveto
          -69 -392 rlineto
          232 hlineto
          73 417 rlineto
          10 52 4 50 45 vvcurveto
          216 -116 119 -212 -100 -108 -38 -63 -73 vhcurveto
          -10 hlineto
          79 434 rlineto
          336 79 callsubr
          -874 27 callgsubr
          305 hlineto
          -219 152 callgsubr
          endchar
        </CharString>
        <CharString name="U">
          207 546 -41 callsubr
        </CharString>
        <CharString name="Uacute">
          207 546 -105 callsubr
          405 163 13 callgsubr
          endchar
        </CharString>
        <CharString name="Ubreve">
          207 546 -105 callsubr
          560 156 29 callsubr
          -170 hlineto
          -183 -28 143 167 callgsubr
          endchar
        </CharString>
        <CharString name="Ucaron">
          207 546 -105 callsubr
          444 158 1 callsubr
        </CharString>
        <CharString name="Ucircumflex">
          207 546 -105 callsubr
          730 487 0 callsubr
        </CharString>
        <CharString name="Ucircumflexbelow">
          207 546 -105 callsubr
          128 -1605 -6 callgsubr
        </CharString>
        <CharString name="Ucyrillic">
          1477 1443 -78 callsubr
          endchar
        </CharString>
        <CharString name="Udblgrave">
          1034 53 callgsubr
          209 -312 rlineto
          197 hlineto
          -611 -1060 -41 callsubr
        </CharString>
        <CharString name="Udieresis">
          207 546 -105 callsubr
          362 190 25 callsubr
          -62 -63 -76 -75 62 -63 73 hvcurveto
          endchar
        </CharString>
        <CharString name="Udieresisacute">
          207 546 -105 callsubr
          448 453 rmoveto
          212 hlineto
          257 234 rlineto
          -246 hlineto
          -320 -566 5 callsubr
          endchar
        </CharString>
        <CharString name="Udieresisbelow">
          207 546 -105 callsubr
          7 -1899 -46 callgsubr
        </CharString>
        <CharString name="Udieresiscaron">
          207 546 -105 callsubr
          694 438 rmoveto
          325 276 rlineto
          -230 hlineto
          -184 -162 rlineto
          -17 hlineto
          -128 162 rlineto
          -218 hlineto
          231 -276 rlineto
          -121 -317 5 callsubr
          endchar
        </CharString>
        <CharString name="Udieresisgrave">
          717 1564 rmoveto
          91 callsubr
          429 hmoveto
          169 callgsubr
          73 -57 113 callgsubr
          -229 566 rmoveto
          -241 hlineto
          175 -234 rlineto
          207 hlineto
          -851 -1350 -41 callsubr
        </CharString>
        <CharString name="Udieresismacron">
          207 546 -105 callsubr
          783 385 2 callgsubr
          191 273 rmoveto
          -703 hlineto
          -26 -148 rlineto
          704 hlineto
          -595 -125 2 callgsubr
          endchar
        </CharString>
        <CharString name="Udotbelow">
          207 546 -105 callsubr
          226 -1909 -82 callgsubr
          endchar
        </CharString>
        <CharString name="Ugrave">
          826 1918 12 callsubr
          -822 -1060 -41 callsubr
        </CharString>
        <CharString name="Uhookabove">
          207 546 -105 callsubr
          397 383 rmoveto
          12 26 47 9 44 hhcurveto
          63 37 -27 -44 -43 -43 -45 -73 -24 hvcurveto
          65 -99 rlineto
          128 41 79 88 107 vvcurveto
          111 -87 222 callsubr
        </CharString>
        <CharString name="Uhorn">
          684 -29 -18 callsubr
        </CharString>
        <CharString name="Uhornacute">
          684 -29 rmoveto
          281 199 174 295 52 hvcurveto
          149 838 rlineto
          -84 callsubr
          vhcurveto
          39 1635 13 callgsubr
          endchar
        </CharString>
        <CharString name="Uhorndotbelow">
          575 -466 153 callsubr
          109 437 -18 callsubr
        </CharString>
        <CharString name="Uhorngrave">
          1365 1278 rmoveto
          -84 callsubr
          281 199 174 295 52 vhcurveto
          -366 1478 12 callsubr
          endchar
        </CharString>
        <CharString name="Uhornhookabove">
          764 1826 66 callgsubr
          -94 -1988 -18 callsubr
        </CharString>
        <CharString name="Uhorntilde">
          684 -29 rmoveto
          281 199 174 295 52 hvcurveto
          149 838 rlineto
          -84 callsubr
          vhcurveto
          104 1781 -17 callsubr
        </CharString>
        <CharString name="Uhungarumlaut">
          207 546 -105 callsubr
          637 163 44 callsubr
          -228 hlineto
          endchar
        </CharString>
        <CharString name="Uinvertedbreve">
          207 546 -105 callsubr
          603 480 rmoveto
          -213 -166 -129 -195 -35 hvcurveto
          177 hlineto
          30 callsubr
          endchar
        </CharString>
        <CharString name="Umacron">
          207 546 -105 callsubr
          903 229 -50 callsubr
          endchar
        </CharString>
        <CharString name="Umacrondieresis">
          207 546 -105 callsubr
          387 442 25 callgsubr
        </CharString>
        <CharString name="Uogonek">
          866 -440 rmoveto
          49 37 5 11 31 hvcurveto
          26 143 rlineto
          -4 -11 -32 -2 -30 hhcurveto
          -74 -49 39 58 77 46 58 152 113 hvcurveto
          122 87 74 129 32 178 177 991 rcurveline
          -241 hlineto
          -170 -956 rlineto
          -185 -34 -115 -113 -153 hhcurveto
          -159 -105 106 161 28 4 37 6 29 hvcurveto
          158 893 196 callsubr
          -159 -897 rlineto
          -7 -32 -3 -31 -47 vvcurveto
          -280 199 -185 296 5 vhcurveto
          28 28 5 10 19 hvcurveto
          -1 -15 rlineto
          -100 -60 -51 -74 -87 vvcurveto
          -113 105 -82 146 vhcurveto
          endchar
        </CharString>
        <CharString name="Upsilondieresisgreek">
          -85 callsubr
          199 -14 callsubr
          438 hmoveto
          73 63 63 79 callgsubr
          -63 72 hvcurveto
          endchar
        </CharString>
        <CharString name="Upsilongreek">
          -85 callsubr
          endchar
        </CharString>
        <CharString name="Upsilontonosgreek">
          926 hmoveto
          100 561 493 882 228 callsubr
          -305 -634 rlineto
          -15 hlineto
          -88 634 97 callgsubr
          179 -883 -99 -560 rlineto
          -504 1080 -5 callgsubr
        </CharString>
        <CharString name="Uring">
          207 546 -105 callsubr
          559 110 39 callsubr
        </CharString>
        <CharString name="Ushortcyrillic">
          1477 1443 -78 callsubr
          244 1544 rmoveto
          -111 -16 -74 -75 -107 hhcurveto
          -114 -60 78 108 -12 callgsubr
          endchar
        </CharString>
        <CharString name="Utilde">
          207 546 -105 callsubr
          426 309 rmoveto
          93 110 callgsubr
          -160 hhcurveto
          -136 -94 -113 -176 -16 hvcurveto
          153 204 callsubr
          53 hhcurveto
          endchar
        </CharString>
        <CharString name="Utildeacute">
          207 546 -105 callsubr
          463 476 rmoveto
          198 hlineto
          162 229 rlineto
          -224 hlineto
          -188 -454 rmoveto
          94 16 -132 164 hhcurveto
          132 97 108 148 228 callgsubr
          -76 -10 -32 -39 -50 -93 -17 132 -163 hhcurveto
          -134 -95 -103 -157 227 callsubr
          79 10 32 40 50 hhcurveto
          endchar
        </CharString>
        <CharString name="Utildebelow">
          207 546 -105 callsubr
          84 -1758 -16 callgsubr
        </CharString>
        <CharString name="V">
          14 callgsubr
          endchar
        </CharString>
        <CharString name="Vdotbelow">
          14 callgsubr
          -648 -1909 -83 callsubr
          endchar
        </CharString>
        <CharString name="Vecyrillic">
          -92 callgsubr
          endchar
        </CharString>
        <CharString name="Vtilde">
          14 callgsubr
          -437 309 rmoveto
          93 110 callgsubr
          -160 hhcurveto
          -136 -94 -113 -176 -17 hvcurveto
          154 204 callsubr
          53 hhcurveto
          endchar
        </CharString>
        <CharString name="W">
          797 869 -87 callgsubr
          endchar
        </CharString>
        <CharString name="Wacute">
          797 869 -87 callgsubr
          -18 737 rmoveto
          236 -38 callgsubr
        </CharString>
        <CharString name="Wcircumflex">
          797 869 -87 callgsubr
          307 1061 rmoveto
          -218 -40 callsubr
          210 hlineto
          endchar
        </CharString>
        <CharString name="Wdieresis">
          797 869 -87 callgsubr
          -61 764 rmoveto
          73 63 63 79 callgsubr
          -63 72 hvcurveto
          439 hmoveto
          -71 callgsubr
          endchar
        </CharString>
        <CharString name="Wdotaccent">
          797 869 -87 callgsubr
          160 746 -50 callgsubr
          endchar
        </CharString>
        <CharString name="Wdotbelow">
          797 869 -87 callgsubr
          -207 -1335 -83 callsubr
          endchar
        </CharString>
        <CharString name="Wgrave">
          806 1918 12 callsubr
          -212 -737 -87 callgsubr
          endchar
        </CharString>
        <CharString name="X">
          -63 callsubr
          endchar
        </CharString>
        <CharString name="Xacyrillic">
          -63 callsubr
          endchar
        </CharString>
        <CharString name="Xdieresis">
          -63 callsubr
          112 905 83 callsubr
          439 155 callgsubr
          endchar
        </CharString>
        <CharString name="Xdotaccent">
          -63 callsubr
          332 887 -37 callgsubr
          endchar
        </CharString>
        <CharString name="Xigreek">
          150 hmoveto
          966 hlineto
          37 217 rlineto
          -965 hlineto
          155 403 rmoveto
          801 hlineto
          37 215 rlineto
          -802 hlineto
          -11 391 rmoveto
          965 hlineto
          37 217 rlineto
          -966 hlineto
          endchar
        </CharString>
        <CharString name="Y">
          -85 callsubr
          endchar
        </CharString>
        <CharString name="Yacute">
          -85 callsubr
          242 176 callsubr
          endchar
        </CharString>
        <CharString name="Ycircumflex">
          -85 callsubr
          567 1930 104 callgsubr
        </CharString>
        <CharString name="Ydieresis">
          -85 callsubr
          199 -14 callsubr
          438 hmoveto
          73 63 63 79 callgsubr
          -63 72 hvcurveto
          endchar
        </CharString>
        <CharString name="Ydotaccent">
          -85 callsubr
          419 1615 -37 callgsubr
          endchar
        </CharString>
        <CharString name="Ydotbelow">
          -85 callsubr
          62 -466 -20 callgsubr
        </CharString>
        <CharString name="Yericyrillic">
          421 734 -66 callgsubr
        </CharString>
        <CharString name="Ygrave">
          794 68 callsubr
          -244 -1606 rmoveto
          99 561 632 882 rlineto
          -272 hlineto
          -439 -636 rlineto
          -15 hlineto
          -221 636 160 callgsubr
          327 -882 -99 -561 rlineto
          endchar
        </CharString>
        <CharString name="Yhookabove">
          -85 callsubr
          234 -3 callsubr
          endchar
        </CharString>
        <CharString name="Yicyrillic">
          1050 hmoveto
          -101 callsubr
          507 1633 rmoveto
          73 63 63 79 callgsubr
          -63 72 hvcurveto
          439 hmoveto
          -71 callgsubr
          endchar
        </CharString>
        <CharString name="Ymacron">
          -85 callsubr
          749 178 callgsubr
          endchar
        </CharString>
        <CharString name="Ytilde">
          -85 callsubr
          262 1752 -17 callgsubr
        </CharString>
        <CharString name="Z">
          -72 callgsubr
          endchar
        </CharString>
        <CharString name="Zacute">
          -72 callgsubr
          602 1434 rmoveto
          236 -38 callgsubr
        </CharString>
        <CharString name="Zcaron">
          -72 callgsubr
          642 1429 rmoveto
          218 -48 callgsubr
          -210 hlineto
          endchar
        </CharString>
        <CharString name="Zcircumflex">
          -72 callgsubr
          928 1758 rmoveto
          -219 -40 callsubr
          211 hlineto
          endchar
        </CharString>
        <CharString name="Zdotaccent">
          -72 callgsubr
          780 1443 -37 callgsubr
          endchar
        </CharString>
        <CharString name="Zdotbelow">
          -72 callgsubr
          414 -638 -83 callsubr
          endchar
        </CharString>
        <CharString name="Zecyrillic">
          -71 callsubr
          endchar
        </CharString>
        <CharString name="Zetagreek">
          -72 callgsubr
          endchar
        </CharString>
        <CharString name="Zhecyrillic">
          -54 callsubr
          endchar
        </CharString>
        <CharString name="Zlinebelow">
          -72 callgsubr
          746 -579 19 callsubr
          -28 -165 rlineto
          endchar
        </CharString>
        <CharString name="a">
          -107 callgsubr
          endchar
        </CharString>
        <CharString name="aacute">
          952 1296 -44 callsubr
          202 -797 -91 callsubr
        </CharString>
        <CharString name="abreve">
          -107 callgsubr
          252 1066 48 callgsubr
        </CharString>
        <CharString name="abreveacute">
          -107 callgsubr
          182 1482 162 callsubr
          222 167 139 205 24 hvcurveto
          -178 hlineto
          66 callsubr
          -34 95 callsubr
          endchar
        </CharString>
        <CharString name="abrevedotbelow">
          -107 callgsubr
          252 1066 rmoveto
          -29 callgsubr
          -178 hlineto
          -53 callsubr
          -317 -1704 -82 callgsubr
          endchar
        </CharString>
        <CharString name="abrevegrave">
          1116 1603 rmoveto
          28 callsubr
          -29 callgsubr
          -429 375 rmoveto
          -212 hlineto
          178 -324 rlineto
          171 hlineto
          -82 -1155 -91 callsubr
        </CharString>
        <CharString name="abrevehookabove">
          -107 callgsubr
          252 1087 rmoveto
          -29 callgsubr
          -178 hlineto
          -111 -14 -88 -75 -1 callsubr
          12 hvcurveto
          -173 hlineto
          -188 -35 95 callsubr
          -158 595 rmoveto
          16 34 99 callgsubr
          -23 hvcurveto
          72 -108 rlineto
          127 42 76 164 callgsubr
        </CharString>
        <CharString name="abrevetilde">
          -107 callgsubr
          252 1087 rmoveto
          -29 callgsubr
          -178 hlineto
          -111 -14 -88 -75 -1 callsubr
          12 hvcurveto
          -173 hlineto
          -188 -35 95 callsubr
          -58 585 -16 callgsubr
        </CharString>
        <CharString name="acaron">
          -107 callgsubr
          360 1124 -1 callgsubr
          endchar
        </CharString>
        <CharString name="acircumflex">
          -107 callgsubr
          169 1455 -6 callgsubr
        </CharString>
        <CharString name="acircumflexacute">
          -107 callgsubr
          508 1482 rmoveto
          201 hlineto
          291 324 rlineto
          -235 hlineto
          -595 -347 rmoveto
          -332 -30 callgsubr
          -208 350 rlineto
          endchar
        </CharString>
        <CharString name="acircumflexdotbelow">
          -107 callgsubr
          169 1455 -60 callgsubr
          -487 -2093 -82 callgsubr
          endchar
        </CharString>
        <CharString name="acircumflexgrave">
          -107 callgsubr
          793 1482 191 callsubr
          -430 -23 rmoveto
          -332 -30 callgsubr
          -208 350 rlineto
          endchar
        </CharString>
        <CharString name="acircumflexhookabove">
          -107 callgsubr
          170 1459 rmoveto
          -332 -30 callgsubr
          -208 350 rlineto
          5 222 60 callgsubr
          endchar
        </CharString>
        <CharString name="acircumflextilde">
          -107 callgsubr
          196 1686 rmoveto
          190 callgsubr
          13 hvcurveto
          -167 hlineto
          103 callgsubr
          hhcurveto
          -26 -227 rmoveto
          -332 -30 callgsubr
          -208 350 rlineto
          endchar
        </CharString>
        <CharString name="acute">
          843 1296 rmoveto
          334 -43 callgsubr
          endchar
        </CharString>
        <CharString name="acutecmb">
          893 1296 63 callgsubr
        </CharString>
        <CharString name="acutecmb.short">
          756 1606 rmoveto
          236 -38 callgsubr
        </CharString>
        <CharString name="acutedotaccentcmb">
          686 1317 -37 callgsubr
          425 -25 63 callgsubr
        </CharString>
        <CharString name="acutedotaccentcmb.short">
          963 176 callsubr
          -499 -266 33 callgsubr
        </CharString>
        <CharString name="acyrillic">
          -107 callgsubr
          endchar
        </CharString>
        <CharString name="adblgrave">
          993 1644 26 callgsubr
          -554 348 rmoveto
          -221 hlineto
          173 -348 rlineto
          197 hlineto
          183 -797 -91 callsubr
        </CharString>
        <CharString name="adieresis">
          -107 callgsubr
          44 1120 -46 callgsubr
        </CharString>
        <CharString name="adieresismacron">
          -107 callgsubr
          479 1394 28 callgsubr
        </CharString>
        <CharString name="adotaccent">
          -107 callgsubr
          262 1117 -83 callsubr
          endchar
        </CharString>
        <CharString name="adotbelow">
          -107 callgsubr
          -65 -638 -82 callgsubr
          endchar
        </CharString>
        <CharString name="adotmacron">
          -107 callgsubr
          661 1553 -50 callsubr
          294 -452 33 callgsubr
        </CharString>
        <CharString name="ae">
          1283 329 rmoveto
          -179 hlineto
          -84 callgsubr
          -131 322 rmoveto
          -317 hlineto
          16 callsubr
          -736 -470 rmoveto
          124 callgsubr
          150 11 125 callgsubr
          endchar
        </CharString>
        <CharString name="aeacute">
          935 1296 -44 callsubr
          -81 -810 rmoveto
          125 callgsubr
          124 callgsubr
          366 176 rmoveto
          16 callsubr
          -48 -322 rmoveto
          -84 callgsubr
          endchar
        </CharString>
        <CharString name="aemacron">
          1283 329 rmoveto
          -179 hlineto
          -84 callgsubr
          -131 322 rmoveto
          -317 hlineto
          16 callsubr
          -736 -470 rmoveto
          124 callgsubr
          150 11 125 callgsubr
          792 1180 -50 callsubr
          endchar
        </CharString>
        <CharString name="agrave">
          -107 callgsubr
          386 1124 -33 callsubr
          endchar
        </CharString>
        <CharString name="ahookabove">
          -107 callgsubr
          85 1331 rmoveto
          16 34 8 callgsubr
          endchar
        </CharString>
        <CharString name="ainvertedbreve">
          -107 callgsubr
          273 1431 rmoveto
          93 callsubr
          178 hlineto
          112 14 88 74 118 hhcurveto
          120 78 callgsubr
          endchar
        </CharString>
        <CharString name="alphagreek">
          -55 callsubr
          endchar
        </CharString>
        <CharString name="alphatonosgreek">
          -55 callsubr
          -24 366 81 callgsubr
        </CharString>
        <CharString name="amacron">
          -107 callgsubr
          597 1189 -50 callsubr
          endchar
        </CharString>
        <CharString name="ampersand">
          532 642 rmoveto
          41 22 248 -403 -85 -68 -99 -35 -97 4 rlinecurve
          -139 5 -86 93 13 130 10 103 65 83 129 66 rrcurveto
          437 -642 rmoveto
          255 hlineto
          -165 244 94 104 66 154 26 170 rlinecurve
          9 63 rlineto
          -191 hlineto
          -4 -28 -23 -138 -27 -77 -50 -63 rlinecurve
          -210 343 218 114 96 118 14 156 rlinecurve
          18 178 -123 128 -195 6 -208 6 -162 -138 -18 -198 -10 -98 35 -107 80 -123 -58 -30 rcurveline
          -199 -102 -111 -143 -13 -170 -19 -226 157 -161 251 -9 145 -5 145 47 114 91 rrcurveto
          -23 1039 rmoveto
          -11 -92 -60 -71 -146 -80 -67 101 -26 72 8 68 11 88 75 66 88 -3 85 -4 53 -62 -10 -83 rrcurveto
          endchar
        </CharString>
        <CharString name="anoteleia">
          783 759 rmoveto
          101 66 69 99 98 -66 70 -101 -102 -66 -70 -98 -99 66 -69 102 hvcurveto
          endchar
        </CharString>
        <CharString name="aogonek">
          630 172 rmoveto
          -111 -72 59 91 1 hvcurveto
          1 109 90 63 160 2 223 3 rcurveline
          -19 -100 rlineto
          -130 -24 -118 -97 -131 hhcurveto
          223 -149 rmoveto
          -160 -85 -52 -66 -110 vvcurveto
          -120 102 -87 139 45 32 5 11 29 vhcurveto
          25 142 rlineto
          -5 -18 -11 -1 -22 hhcurveto
          -73 -48 40 61 84 67 58 156 50 hvcurveto
          115 653 rlineto
          13 67 3 30 44 vvcurveto
          193 -159 126 -241 -237 -193 -130 -183 -35 vhcurveto
          229 hlineto
          76 28 86 49 100 hhcurveto
          117 74 -59 -92 -19 -2 -18 -3 -20 hvcurveto
          -11 -61 -258 -4 -310 -5 -169 -129 2 -230 rlinecurve
          -179 1 136 -126 193 hhcurveto
          131 126 67 99 52 hvcurveto
          23 hlineto
          endchar
        </CharString>
        <CharString name="approxequal">
          596 752 rmoveto
          38 29 -19 -68 74 hvcurveto
          -68 74 66 -30 72 hhcurveto
          172 104 137 226 hvcurveto
          -178 hlineto
          -100 -3 -38 -50 -70 hhcurveto
          -37 -29 18 66 -74 hvcurveto
          68 -75 -63 29 -73 hhcurveto
          -175 -101 -132 -230 1 hvcurveto
          176 hlineto
          102 7 36 51 67 hhcurveto
          -83 -472 rmoveto
          39 33 -20 -66 70 hvcurveto
          -68 74 65 -30 73 hhcurveto
          172 103 137 227 hvcurveto
          -177 hlineto
          -101 -4 -38 -51 -70 hhcurveto
          -37 -26 16 68 -77 hvcurveto
          69 -75 -63 29 -73 hhcurveto
          -173 -102 -132 -229 hvcurveto
          176 hlineto
          101 7 36 50 67 hhcurveto
          endchar
        </CharString>
        <CharString name="aring">
          -107 callgsubr
          270 1200 rmoveto
          -61 -47 48 62 62 47 48 61 62 47 -48 -62 -62 -47 -48 -62 hvcurveto
          -127 vmoveto
          129 104 205 callgsubr
          -104 106 -129 -128 202 callgsubr
          128 hvcurveto
          endchar
        </CharString>
        <CharString name="aringacute">
          1031 1737 rmoveto
          238 241 rlineto
          -213 hlineto
          -203 -241 rlineto
          39 -511 rmoveto
          121 92 91 120 120 -92 90 -121 -121 -93 -90 -120 -120 93 -91 121 hvcurveto
          113 vmoveto
          -57 -42 42 56 56 42 42 57 56 42 -42 -56 -56 -42 -42 -56 hvcurveto
          27 -840 -91 callsubr
        </CharString>
        <CharString name="aringbelow">
          -107 callgsubr
          -68 -640 rmoveto
          -61 -47 49 62 61 47 49 61 62 47 -49 -61 -62 -47 -49 -62 hvcurveto
          -127 vmoveto
          129 105 107 131 130 -105 107 -129 -128 -105 -107 -130 -131 105 -107 128 hvcurveto
          endchar
        </CharString>
        <CharString name="asciicircum">
          844 1188 rmoveto
          18 hlineto
          132 -536 rlineto
          231 hlineto
          -223 791 rlineto
          -229 hlineto
          -498 -791 rlineto
          247 hlineto
          endchar
        </CharString>
        <CharString name="asciitilde">
          548 938 rmoveto
          -181 -117 -142 -222 -11 1 -15 1 -12 hvcurveto
          199 hlineto
          120 5 41 58 77 hhcurveto
          42 36 -21 -66 63 hvcurveto
          -92 91 72 -35 96 hhcurveto
          179 116 144 221 10 -1 15 -1 12 hvcurveto
          -197 hlineto
          -117 -5 -40 -61 -74 hhcurveto
          -44 -38 22 64 -63 hvcurveto
          94 -92 -71 34 -95 hhcurveto
          endchar
        </CharString>
        <CharString name="asterisk">
          1329 745 rmoveto
          -64 184 -418 -170 93 440 -185 34 -63 -448 -336 304 -120 -149 351 -275 -425 -138 64 -183 418 170 -93 -440 185 -34 63 447 336 -304 120 150 -352 275 rlineto
          endchar
        </CharString>
        <CharString name="at">
          675 -206 rmoveto
          82 86 11 16 38 hvcurveto
          24 137 rlineto
          -15 -49 -79 -10 -71 hhcurveto
          -259 -122 131 281 80 9 87 17 95 hvcurveto
          24 129 rlineto
          422 74 142 180 253 hhcurveto
          233 122 -124 -239 -61 -6 -66 -13 -72 hvcurveto
          -42 -237 rlineto
          -86 -16 -42 -35 -87 hhcurveto
          -135 hlineto
          71 408 rlineto
          2 12 2 15 9 vvcurveto
          71 -41 43 -70 -70 -51 -50 -83 -15 vhcurveto
          -69 -404 rlineto
          -2 -10 -2 -17 -10 vvcurveto
          -70 41 -43 67 vhcurveto
          276 hlineto
          171 79 70 190 34 hvcurveto
          45 247 rlineto
          12 69 6 68 66 vvcurveto
          311 -172 169 -313 -334 -211 -243 -488 -84 vhcurveto
          -29 -153 rlineto
          -17 -111 -9 -87 -69 vvcurveto
          -356 167 -178 333 vhcurveto
          endchar
        </CharString>
        <CharString name="atilde">
          -107 callgsubr
          115 1246 37 callsubr
          endchar
        </CharString>
        <CharString name="austral">
          841 1190 rmoveto
          10 hlineto
          41 -383 rlineto
          -230 hlineto
          259 -292 rmoveto
          -392 hlineto
          80 172 rlineto
          294 hlineto
          69 -687 rmoveto
          251 hlineto
          -54 377 rlineto
          110 hlineto
          24 138 rlineto
          -151 hlineto
          -24 163 rlineto
          204 hlineto
          24 138 rlineto
          -245 hlineto
          -85 627 rlineto
          -278 hlineto
          -306 -627 rlineto
          -244 hlineto
          -24 -138 rlineto
          204 hlineto
          -82 -163 rlineto
          -151 hlineto
          -24 -138 rlineto
          110 hlineto
          -188 -377 rlineto
          251 hlineto
          176 377 rlineto
          462 hlineto
          endchar
        </CharString>
        <CharString name="b">
          -81 callgsubr
          endchar
        </CharString>
        <CharString name="backslash">
          1061 -186 rmoveto
          -371 1815 216 callsubr
          376 -1815 rlineto
          endchar
        </CharString>
        <CharString name="baht">
          879 1247 rmoveto
          104 -18 55 -62 -100 vvcurveto
          -1 -122 -92 -89 -138 -16 rrcurveto
          -33 -187 rmoveto
          145 -14 78 -72 -121 vvcurveto
          -151 -118 -97 -186 -4 vhcurveto
          -278 hmoveto
          84 461 rlineto
          154 hlineto
          -82 -461 rlineto
          34 1058 rmoveto
          153 hlineto
          -73 -415 rlineto
          -155 hlineto
          410 754 rmoveto
          -122 hlineto
          -26 -148 rlineto
          -393 -99 callgsubr
          392 hlineto
          -25 -142 rlineto
          122 hlineto
          25 142 rlineto
          61 hlineto
          316 208 167 250 1 hvcurveto
          1 168 -107 129 -163 28 3 14 rcurveline
          186 35 123 141 1 177 1 195 -140 123 -236 15 rrcurveto
          endchar
        </CharString>
        <CharString name="bar">
          661 -483 rmoveto
          371 2112 rlineto
          -227 hlineto
          -370 -2112 rlineto
          endchar
        </CharString>
        <CharString name="bdotaccent">
          -81 callgsubr
          323 1103 -20 callsubr
        </CharString>
        <CharString name="bdotbelow">
          -81 callgsubr
          -142 -652 -83 callsubr
          endchar
        </CharString>
        <CharString name="becyrillic">
          708 176 rmoveto
          -153 -100 112 173 49 5 41 10 44 hvcurveto
          176 41 109 110 142 hhcurveto
          159 93 -102 -163 -59 -2 -26 -10 -48 hvcurveto
          -195 -38 -109 -112 -147 hhcurveto
          -243 682 rmoveto
          88 300 131 114 257 2 214 2 111 13 65 29 34 203 rcurveline
          -80 -31 -138 -19 -192 -5 -398 -8 -204 -211 -103 -508 rrcurveto
          -18 -84 -10 -80 -74 vvcurveto
          -325 179 -198 294 290 197 180 319 58 vhcurveto
          12 62 3 31 57 vvcurveto
          262 -162 173 -258 -164 -126 -72 -132 -70 vhcurveto
          endchar
        </CharString>
        <CharString name="betagreek">
          106 -367 rmoveto
          222 hlineto
          101 578 rlineto
          14 hlineto
          -143 29 135 -85 172 hhcurveto
          282 172 211 272 172 -88 136 -154 40 hvcurveto
          3 14 rlineto
          166 51 97 127 188 vvcurveto
          207 -164 139 -237 -284 -158 -141 -314 -54 vhcurveto
          366 -903 rmoveto
          -144 -112 102 147 48 4 24 10 51 hvcurveto
          91 520 rlineto
          186 35 86 87 142 hhcurveto
          134 72 -73 -111 -167 -104 -82 -168 hvcurveto
          -82 hlineto
          -33 -195 rlineto
          67 hlineto
          172 109 -96 -155 -168 -105 -118 -174 hvcurveto
          endchar
        </CharString>
        <CharString name="bitcoin">
          958 763 rmoveto
          204 29 126 138 201 vvcurveto
          147 -100 102 -170 26 vhcurveto
          41 208 rlineto
          -131 hlineto
          -39 -200 rlineto
          -161 hlineto
          39 200 rlineto
          -130 hlineto
          -39 -200 rlineto
          -180 hlineto
          -273 -1390 rlineto
          181 hlineto
          -39 -199 rlineto
          130 hlineto
          39 199 rlineto
          161 hlineto
          -39 -199 rlineto
          130 hlineto
          39 200 rlineto
          283 14 197 185 241 vvcurveto
          153 -113 111 -159 18 vhcurveto
          -346 481 rmoveto
          217 hlineto
          146 74 -59 -103 -140 -117 -97 -176 hvcurveto
          -225 hlineto
          -123 -618 rmoveto
          91 446 rlineto
          240 hlineto
          165 84 -66 -118 -149 -129 -113 -182 hvcurveto
          endchar
        </CharString>
        <CharString name="blinebelow">
          -81 callgsubr
          190 -593 19 callsubr
          -28 -165 rlineto
          endchar
        </CharString>
        <CharString name="braceleft">
          994 -186 rmoveto
          31 189 rlineto
          -100 hlineto
          -111 -37 28 83 27 4 33 7 42 hvcurveto
          46 258 rlineto
          3 14 1 18 28 vvcurveto
          115 -97 81 -152 11 vhcurveto
          4 18 194 7 111 73 23 133 rlinecurve
          49 274 rlineto
          162 28 27 25 151 hhcurveto
          101 hlineto
          32 191 rlineto
          -151 hlineto
          -278 -93 -77 -258 -46 hvcurveto
          -38 -222 rlineto
          -151 -26 -80 -46 -234 hhcurveto
          -40 -237 rlineto
          182 86 -57 -120 -20 -2 -21 -4 -22 hvcurveto
          -36 -207 rlineto
          -9 -51 -4 -43 -35 vvcurveto
          -173 89 -70 218 vhcurveto
          endchar
        </CharString>
        <CharString name="braceright">
          521 1624 rmoveto
          -31 -188 rlineto
          100 hlineto
          111 37 -28 -83 -27 -4 -34 -7 -41 hvcurveto
          -46 -259 rlineto
          -3 -14 -1 -18 -27 vvcurveto
          -115 97 -81 152 -12 vhcurveto
          -4 -17 -194 -7 -111 -74 -23 -133 rlinecurve
          -48 -274 rlineto
          -161 -29 -27 -26 -151 hhcurveto
          -101 hlineto
          -32 -191 rlineto
          151 hlineto
          278 93 77 259 46 hvcurveto
          38 222 rlineto
          151 26 80 45 234 hhcurveto
          40 238 rlineto
          -182 -86 57 120 19 2 22 4 22 hvcurveto
          36 207 rlineto
          9 51 4 42 36 vvcurveto
          172 -89 70 -218 vhcurveto
          endchar
        </CharString>
        <CharString name="bracketleft">
          633 1629 rmoveto
          -317 -1815 rlineto
          593 hlineto
          31 186 rlineto
          -362 -59 callgsubr
          357 hlineto
          31 186 rlineto
          endchar
        </CharString>
        <CharString name="bracketright">
          617 1629 rmoveto
          -32 -186 rlineto
          357 -99 callgsubr
          -362 hlineto
          -31 -186 rlineto
          593 hlineto
          316 1815 rlineto
          endchar
        </CharString>
        <CharString name="breve">
          876 1238 rmoveto
          -29 callgsubr
          -177 -36 callsubr
          220 hhcurveto
          endchar
        </CharString>
        <CharString name="breveacutecmb">
          804 1654 162 callsubr
          223 166 139 205 24 hvcurveto
          -178 hlineto
          103 callsubr
          endchar
        </CharString>
        <CharString name="breveacutecmb.short">
          835 1892 rmoveto
          188 hlineto
          241 238 rlineto
          -223 hlineto
          -110 -550 52 callgsubr
        </CharString>
        <CharString name="brevebelowcmb">
          583 -475 rmoveto
          -29 callgsubr
          -177 -36 callsubr
          220 hhcurveto
          endchar
        </CharString>
        <CharString name="brevecmb">
          876 1238 rmoveto
          -29 callgsubr
          -177 -36 callsubr
          220 hhcurveto
          endchar
        </CharString>
        <CharString name="brevecmb.short">
          924 1599 rmoveto
          213 165 129 195 35 hvcurveto
          -177 hlineto
          -107 -21 -91 -72 -113 hhcurveto
          -111 -68 71 108 10 182 callgsubr
          144 167 callgsubr
          endchar
        </CharString>
        <CharString name="brevecyrillic">
          876 1260 rmoveto
          215 31 callsubr
          -181 hlineto
          -110 -16 -74 -76 -38 callsubr
          -151 213 hhcurveto
          endchar
        </CharString>
        <CharString name="brevecyrillic.short">
          905 1607 rmoveto
          215 155 135 194 21 hvcurveto
          -180 hlineto
          58 callsubr
          144 -152 213 hhcurveto
          endchar
        </CharString>
        <CharString name="brevegravecmb">
          1110 1603 rmoveto
          103 callsubr
          223 166 139 205 24 hvcurveto
          -430 375 rmoveto
          -211 hlineto
          177 -324 rlineto
          172 hlineto
          endchar
        </CharString>
        <CharString name="brevegravecmb.short">
          1066 1892 rmoveto
          -123 238 rlineto
          -210 hlineto
          158 -238 rlineto
          40 -312 52 callgsubr
        </CharString>
        <CharString name="brevehookabovecmb">
          876 1259 rmoveto
          -29 callgsubr
          -177 hlineto
          28 callsubr
          -158 595 0 callgsubr
          -71 -23 hvcurveto
          71 -108 rlineto
          128 42 75 164 callgsubr
        </CharString>
        <CharString name="brevehookabovecmb.short">
          784 2028 rmoveto
          170 callsubr
          65 -84 rlineto
          119 174 callgsubr
          125 -564 rmoveto
          206 156 113 167 25 hvcurveto
          -169 hlineto
          -91 -13 -83 -59 -113 hhcurveto
          -113 -70 57 93 -5 hvcurveto
          -161 hlineto
          -173 -4 130 -107 214 hhcurveto
          endchar
        </CharString>
        <CharString name="brevetildecmb">
          876 1259 rmoveto
          -29 callgsubr
          -177 hlineto
          28 callsubr
          -57 585 rmoveto
          84 -62 callgsubr
          -53 -64 callsubr
          endchar
        </CharString>
        <CharString name="brevetildecmb.short">
          927 1580 rmoveto
          197 154 105 155 34 208 callgsubr
          -79 -21 -81 -51 -103 hhcurveto
          -103 -70 50 80 -13 hvcurveto
          -164 hlineto
          -161 6 130 -99 205 hhcurveto
          -85 432 rmoveto
          197 callsubr
          13 hvcurveto
          -150 hlineto
          -60 -6 -30 -34 -47 -93 -41 118 -153 hhcurveto
          -138 -107 231 callgsubr
          38 39 54 hhcurveto
          endchar
        </CharString>
        <CharString name="brokenbar">
          884 782 191 callgsubr
          3 -1266 191 callgsubr
          endchar
        </CharString>
        <CharString name="bullet">
          746 202 rmoveto
          241 196 197 242 242 -196 197 -241 -240 -196 -197 -242 -242 196 -197 240 hvcurveto
          endchar
        </CharString>
        <CharString name="c">
          1245 716 -90 callsubr
          endchar
        </CharString>
        <CharString name="cacute">
          1245 716 -90 callsubr
          -80 580 63 callgsubr
        </CharString>
        <CharString name="caron">
          986 1296 -1 callgsubr
          endchar
        </CharString>
        <CharString name="caroncmb">
          984 1296 -66 callsubr
          endchar
        </CharString>
        <CharString name="caroncmb.short">
          808 1601 rmoveto
          218 -48 callgsubr
          -210 hlineto
          endchar
        </CharString>
        <CharString name="carondotaccentcmb">
          990 1278 rmoveto
          331 84 callgsubr
          -117 101 callsubr
          209 -350 rlineto
          207 416 40 callsubr
          endchar
        </CharString>
        <CharString name="carondotaccentcmb.short">
          950 1892 154 callsubr
          66 -313 rmoveto
          321 254 rlineto
          -235 hlineto
          -182 -146 rlineto
          -17 hlineto
          -131 146 rlineto
          -225 hlineto
          234 -254 rlineto
          endchar
        </CharString>
        <CharString name="ccaron">
          975 90 callgsubr
          523 -580 -90 callsubr
          endchar
        </CharString>
        <CharString name="ccedilla">
          1245 716 rmoveto
          1 14 1 14 11 vvcurveto
          217 -180 148 -263 -274 -197 -164 -269 -48 vhcurveto
          -7 -36 -16 -95 -3 -21 rrcurveto
          -8 -51 -4 -49 -43 vvcurveto
          -216 126 -149 208 -39 vhcurveto
          -63 -115 -61 callgsubr
          vlineto
          endchar
        </CharString>
        <CharString name="ccedillaacute">
          1273 1643 rmoveto
          -269 135 callsubr
          -420 -1423 rmoveto
          -61 callgsubr
          228 vlineto
          1 14 1 14 11 vvcurveto
          217 -180 148 -263 -274 -197 -164 -269 -48 vhcurveto
          -7 -36 -16 -95 -3 -21 rrcurveto
          -8 -51 -4 -49 -43 vvcurveto
          -216 126 -149 208 -39 vhcurveto
          endchar
        </CharString>
        <CharString name="ccircumflex">
          784 1627 -60 callgsubr
          208 -911 -90 callsubr
          endchar
        </CharString>
        <CharString name="cdotaccent">
          877 1289 -83 callsubr
          368 -573 -90 callsubr
          endchar
        </CharString>
        <CharString name="cedi">
          512 894 rmoveto
          38 207 102 124 150 23 -184 -1039 rcurveline
          -105 39 -61 97 140 vvcurveto
          45 5 51 7 41 vhcurveto
          889 322 rmoveto
          4 31 2 23 21 vvcurveto
          233 -154 170 -232 41 vhcurveto
          23 128 rlineto
          -134 hlineto
          -21 -119 -314 -10 -203 -200 -62 -362 rlinecurve
          -45 -258 rlineto
          -8 -46 -6 -56 -52 vvcurveto
          -266 144 -186 232 -52 vhcurveto
          -27 -151 rlineto
          133 hlineto
          24 137 rlineto
          6 hlineto
          298 217 178 281 39 hvcurveto
          2 8 1 13 1 11 rrcurveto
          -246 hlineto
          -3 0 -3 -1 -5 vhcurveto
          -33 -162 -97 -89 -148 -8 186 1052 rcurveline
          111 -28 68 -87 -121 vvcurveto
          -25 -1 -16 -2 -22 vhcurveto
          endchar
        </CharString>
        <CharString name="cedilla">
          473 -231 rmoveto
          55 hlineto
          85 219 callgsubr
          -27 102 callsubr
          47 57 -9 48 hhcurveto
          170 102 24 callsubr
          67 212 callgsubr
        </CharString>
        <CharString name="cedillacmb">
          479 -231 rmoveto
          65 callgsubr
          66 212 callgsubr
        </CharString>
        <CharString name="cent">
          1202 498 rmoveto
          -228 hlineto
          -93 -24 -82 -53 -116 hhcurveto
          -144 -82 85 152 29 4 44 7 37 hvcurveto
          20 111 rlineto
          160 29 100 93 140 hhcurveto
          132 76 -70 -120 hvcurveto
          228 hlineto
          16 198 -103 140 -192 46 33 191 rcurveline
          -212 hlineto
          -30 -175 -235 -24 -164 -153 -44 -237 rlinecurve
          -26 -141 rlineto
          -8 -56 -6 -60 -49 vvcurveto
          -193 108 -145 180 -51 vhcurveto
          -35 -199 217 callgsubr
          32 180 221 22 158 133 35 198 rlinecurve
          endchar
        </CharString>
        <CharString name="checyrillic">
          1271 1095 -69 callsubr
          -80 -452 207 callgsubr
          endchar
        </CharString>
        <CharString name="chigreek">
          41 -363 rmoveto
          238 hlineto
          383 514 rlineto
          15 hlineto
          114 -350 rlineto
          -121 40 63 -53 126 hhcurveto
          50 42 9 8 23 hvcurveto
          30 176 rlineto
          -3 -19 -14 -2 -18 hhcurveto
          -71 -36 28 86 -29 hvcurveto
          -151 435 550 731 138 callsubr
          -375 -505 rlineto
          -16 hlineto
          -112 332 rlineto
          135 -46 -53 53 -133 hhcurveto
          -38 -41 -7 -9 -29 hvcurveto
          -31 -178 rlineto
          4 20 15 1 12 hhcurveto
          71 35 -33 -95 32 hvcurveto
          146 -421 rlineto
          endchar
        </CharString>
        <CharString name="circumflex">
          793 1627 -42 callgsubr
        </CharString>
        <CharString name="circumflexacutecmb">
          1132 1654 rmoveto
          202 hlineto
          290 324 rlineto
          -235 hlineto
          -595 -347 -52 callgsubr
          endchar
        </CharString>
        <CharString name="circumflexacutecmb.short">
          1179 1863 rmoveto
          206 hlineto
          266 142 callsubr
          237 203 callgsubr
          131 -146 159 callsubr
          endchar
        </CharString>
        <CharString name="circumflexbelowcmb">
          478 -162 -42 callgsubr
        </CharString>
        <CharString name="circumflexcmb">
          793 1627 -42 callgsubr
        </CharString>
        <CharString name="circumflexcmb.short">
          1081 1930 rmoveto
          -218 -40 callsubr
          210 hlineto
          endchar
        </CharString>
        <CharString name="circumflexgravecmb">
          1417 1654 rmoveto
          -144 324 rlineto
          -225 hlineto
          177 -324 rlineto
          -431 -23 -52 callgsubr
          endchar
        </CharString>
        <CharString name="circumflexgravecmb.short">
          1436 1863 rmoveto
          -150 146 callsubr
          -170 -34 109 callsubr
          endchar
        </CharString>
        <CharString name="circumflexhookabovecmb">
          794 1631 -52 callgsubr
          6 222 0 callgsubr
          -71 -22 hvcurveto
          71 130 callsubr
          endchar
        </CharString>
        <CharString name="circumflexhookabovecmb.short">
          1072 1829 109 callsubr
          -174 435 rmoveto
          11 34 35 6 34 hhcurveto
          57 32 -24 -42 -41 -40 -42 -72 -23 hvcurveto
          70 -89 rlineto
          122 38 72 82 104 vvcurveto
          99 -79 65 -114 -43 -44 -7 -13 -42 vhcurveto
          endchar
        </CharString>
        <CharString name="circumflextildecmb">
          820 1858 133 callsubr
          -11 -25 -40 -51 -85 -37 210 callgsubr
          -15 96 callsubr
          95 11 27 42 50 hhcurveto
          -26 -227 -52 callgsubr
          endchar
        </CharString>
        <CharString name="circumflextildecmb.short">
          1071 1829 109 callgsubr
          -450 440 rmoveto
          96 14 -123 162 98 callgsubr
          -14 hvcurveto
          151 hlineto
          71 9 32 38 48 hhcurveto
          endchar
        </CharString>
        <CharString name="colon">
          667 -14 rmoveto
          113 91 95 114 115 -91 93 -113 -112 -92 -93 -115 -114 92 -95 112 hvcurveto
          135 762 38 callsubr
          endchar
        </CharString>
        <CharString name="coloncurrency">
          687 -156 rmoveto
          74 147 rlineto
          -12 50 56 -7 61 hhcurveto
          74 85 8 12 71 hvcurveto
          36 215 rlineto
          -12 -51 -77 -7 -73 hhcurveto
          -52 -47 4 9 -40 hvcurveto
          677 1390 rlineto
          -135 hlineto
          -71 -143 -47 11 -66 8 -67 3 rlinecurve
          1 39 64 57 21 hvcurveto
          -135 hlineto
          -59 -124 -474 -32 -301 -288 -34 -457 rlinecurve
          -24 -232 65 -196 137 -112 -154 -306 rcurveline
          135 hlineto
          122 239 45 -29 51 -23 56 -18 rlinecurve
          -84 -169 rlineto
          -60 556 rmoveto
          -38 78 -16 109 9 112 15 278 176 198 270 58 rrcurveto
          -180 -1014 rmoveto
          -60 18 -53 28 -35 34 471 956 rcurveline
          72 2 58 -5 54 -8 rrcurveto
          endchar
        </CharString>
        <CharString name="comma">
          549 -335 rmoveto
          316 737 rlineto
          -289 hlineto
          -261 -737 rlineto
          endchar
        </CharString>
        <CharString name="commaaccent">
          622 -494 -25 callgsubr
          endchar
        </CharString>
        <CharString name="commabelowcmb">
          568 -513 -25 callgsubr
          endchar
        </CharString>
        <CharString name="copyright">
          760 190 rmoveto
          294 229 233 299 172 callgsubr
          -299 198 callgsubr
          191 243 242 184 191 234 234 184 -191 -242 -243 -184 -191 -234 hvcurveto
          258 509 rmoveto
          121 3 -91 84 -133 hhcurveto
          -176 -114 -130 -204 -139 93 -88 145 121 94 73 116 28 hvcurveto
          -132 hlineto
          -44 -17 -39 -26 -49 hhcurveto
          -71 -38 41 79 121 58 83 84 60 36 -30 -57 6 hvcurveto
          endchar
        </CharString>
        <CharString name="cruzeiro">
          1203 200 rmoveto
          -10 -48 -61 -6 -57 hhcurveto
          -42 -35 2 4 -33 hvcurveto
          50 271 rlineto
          156 28 99 99 125 hhcurveto
          35 49 -9 -10 19 hvcurveto
          33 194 rlineto
          9 -20 -30 5 -32 hhcurveto
          -116 -92 -68 -120 -46 hvcurveto
          -14 hlineto
          31 171 rlineto
          -192 hlineto
          -118 -662 rlineto
          -188 61 -96 137 209 vvcurveto
          367 249 255 355 105 114 -15 -22 65 vhcurveto
          38 207 rlineto
          29 -67 -114 17 -127 hhcurveto
          -531 -332 -328 -527 -408 299 -235 466 74 65 4 10 56 hvcurveto
          endchar
        </CharString>
        <CharString name="currency">
          1313 930 rmoveto
          -114 174 -179 -134 -55 53 -71 34 -78 14 rlinecurve
          -77 13 -78 -8 -71 -30 -122 186 rcurveline
          -165 -122 124 -181 -53 -56 -34 -69 -14 -83 rlinecurve
          -14 -83 7 -76 30 -71 -178 -129 rcurveline
          115 -173 179 134 56 -52 70 -35 78 -13 rlinecurve
          78 -14 78 8 69 30 123 -186 rcurveline
          164 122 -123 180 54 57 34 69 14 83 rlinecurve
          15 82 -8 77 -30 71 rrcurveto
          -436 -391 rmoveto
          -135 23 -79 120 23 133 24 134 117 85 134 -23 134 -24 80 -118 -24 -135 -24 -134 -117 -84 -133 23 rrcurveto
          endchar
        </CharString>
        <CharString name="d">
          -96 callgsubr
          endchar
        </CharString>
        <CharString name="dagger">
          859 752 rmoveto
          387 -3 32 195 -387 -2 78 412 rlineto
          -194 hlineto
          -69 -412 -388 2 -32 -195 387 3 -167 -922 rlineto
          194 hlineto
          endchar
        </CharString>
        <CharString name="daggerdbl">
          1156 240 rmoveto
          33 194 -386 -2 57 320 386 -3 32 195 -385 -2 76 412 rlineto
          -194 hlineto
          -72 -412 -385 2 -32 -195 386 3 -58 -320 -385 2 -33 -194 385 1 -75 -411 rlineto
          194 hlineto
          71 411 rlineto
          endchar
        </CharString>
        <CharString name="dblgrave">
          1070 -7 callgsubr
          endchar
        </CharString>
        <CharString name="dblgravecmb">
          988 -7 callgsubr
          endchar
        </CharString>
        <CharString name="dblgravecmb.short">
          1033 53 callgsubr
          208 -312 rlineto
          198 hlineto
          endchar
        </CharString>
        <CharString name="dcaron">
          1343 1518 rmoveto
          -84 -477 rlineto
          155 hlineto
          119 477 rlineto
          -939 -404 rmoveto
          -209 -146 -155 -259 -45 hvcurveto
          -39 -232 rlineto
          -7 -35 -5 -44 -57 vvcurveto
          -213 126 -136 200 130 91 72 123 49 vhcurveto
          16 hlineto
          -32 -178 194 callsubr
          267 1518 rlineto
          -213 hlineto
          -110 -617 rlineto
          -12 hlineto
          126 -23 -95 87 -153 hhcurveto
          36 -200 rmoveto
          126 82 -92 -117 -33 -2 -21 -4 -25 hvcurveto
          -34 -197 rlineto
          -159 -29 -89 -81 -132 hhcurveto
          -123 -70 85 133 30 3 29 4 21 hvcurveto
          32 188 rlineto
          165 30 78 74 128 hhcurveto
          endchar
        </CharString>
        <CharString name="dcircumflexbelow">
          -96 callgsubr
          -266 -1076 -42 callgsubr
        </CharString>
        <CharString name="dcommaaccent">
          -96 callgsubr
          -154 -1427 -25 callgsubr
          endchar
        </CharString>
        <CharString name="dcroat">
          944 444 rmoveto
          -158 -29 -106 -97 -148 hhcurveto
          -133 -87 90 135 32 3 34 4 25 187 callgsubr
          162 30 93 91 143 hhcurveto
          137 101 -100 -136 -20 -1 -20 -5 -28 hvcurveto
          525 783 rmoveto
          -152 hlineto
          22 125 138 callsubr
          -22 -125 rlineto
          -182 hlineto
          -22 -131 rlineto
          180 hlineto
          -67 -378 rlineto
          -13 hlineto
          139 -24 -133 91 -163 hhcurveto
          -233 -169 -167 -273 -44 hvcurveto
          -28 -177 rlineto
          -6 -38 -5 -49 -49 vvcurveto
          -231 143 -147 224 145 124 83 130 48 vhcurveto
          16 hlineto
          -35 -196 rlineto
          236 hlineto
          223 1262 rlineto
          153 hlineto
          endchar
        </CharString>
        <CharString name="ddotaccent">
          -96 callgsubr
          -28 375 -82 callgsubr
          endchar
        </CharString>
        <CharString name="ddotbelow">
          -96 callgsubr
          -167 -1380 -83 callsubr
          endchar
        </CharString>
        <CharString name="decyrillic">
          -8 callgsubr
        </CharString>
        <CharString name="degree">
          837 815 rmoveto
          194 144 146 195 195 -144 146 -194 -195 -144 -146 -195 -195 144 -146 195 hvcurveto
          153 vmoveto
          -107 -77 79 109 109 77 79 107 106 78 -79 -109 -109 -78 -79 -106 hvcurveto
          endchar
        </CharString>
        <CharString name="deltagreek">
          1234 589 rmoveto
          209 -89 120 -227 146 vhcurveto
          -108 65 -54 40 72 vvcurveto
          75 52 38 117 106 119 -34 -61 113 vhcurveto
          32 188 rlineto
          58 -105 -145 35 -142 hhcurveto
          -221 -165 -89 -188 -96 49 -89 125 -71 hvcurveto
          -3 -15 -243 -19 -154 -137 -53 -206 rlinecurve
          -23 -88 -8 -56 -57 vvcurveto
          -275 182 -176 277 278 184 144 266 75 vhcurveto
          21 71 10 61 69 vvcurveto
          -468 259 rmoveto
          142 98 -91 -170 -28 -2 -28 -5 -28 hvcurveto
          -3 -17 -9 -49 -6 -15 rrcurveto
          -154 -42 -112 -97 -143 hhcurveto
          -149 -100 107 151 28 2 26 3 27 hvcurveto
          3 16 8 48 4 14 rrcurveto
          160 38 109 100 164 hhcurveto
          endchar
        </CharString>
        <CharString name="dieresis">
          668 1308 61 callsubr
        </CharString>
        <CharString name="dieresisacutecmb">
          791 1654 rmoveto
          207 hlineto
          304 324 rlineto
          -240 hlineto
          -397 -690 rmoveto
          -88 callgsubr
          439 hmoveto
          72 63 63 76 76 -63 63 -72 156 callsubr
        </CharString>
        <CharString name="dieresisacutecmb.short">
          812 1896 rmoveto
          211 hlineto
          257 234 rlineto
          -246 hlineto
          -319 -566 rmoveto
          70 58 59 73 73 -58 59 -70 -71 -58 -59 -73 -73 58 -59 71 hvcurveto
          428 hmoveto
          91 callsubr
          endchar
        </CharString>
        <CharString name="dieresisbelowcmb">
          357 -456 rmoveto
          -88 callgsubr
          439 hmoveto
          73 62 63 76 76 -62 63 -73 156 callsubr
        </CharString>
        <CharString name="dieresiscaroncmb">
          1036 1654 rmoveto
          329 332 rlineto
          -218 hlineto
          -203 -213 rlineto
          -15 hlineto
          -128 213 rlineto
          -204 hlineto
          214 -332 rlineto
          -146 -366 rmoveto
          -88 callgsubr
          439 hmoveto
          72 63 63 76 76 -63 63 -72 156 callsubr
        </CharString>
        <CharString name="dieresiscaroncmb.short">
          1057 1881 rmoveto
          325 276 rlineto
          -230 hlineto
          -184 -162 rlineto
          -16 hlineto
          -129 162 rlineto
          -217 hlineto
          230 -276 rlineto
          -121 -317 rmoveto
          91 callsubr
          429 hmoveto
          91 callsubr
          endchar
        </CharString>
        <CharString name="dieresiscmb">
          668 1292 rmoveto
          -88 callgsubr
          439 hmoveto
          73 62 63 76 76 -62 63 -73 156 callsubr
        </CharString>
        <CharString name="dieresiscmb.short">
          726 -14 callsubr
          438 hmoveto
          73 63 63 79 callgsubr
          -63 72 hvcurveto
          endchar
        </CharString>
        <CharString name="dieresisgravecmb">
          666 1288 6 callgsubr
          -397 192 callgsubr
          endchar
        </CharString>
        <CharString name="dieresisgravecmb.short">
          716 1564 5 callsubr
          -229 566 rmoveto
          -242 hlineto
          176 -234 rlineto
          207 hlineto
          endchar
        </CharString>
        <CharString name="dieresismacroncmb">
          1104 210 callsubr
          72 63 64 75 76 -63 63 -72 hvcurveto
          -439 hmoveto
          49 callgsubr
          -51 237 callgsubr
          216 callgsubr
          endchar
        </CharString>
        <CharString name="dieresismacroncmb.short">
          1146 1828 2 callgsubr
          192 273 rmoveto
          -704 hlineto
          -25 -148 rlineto
          703 hlineto
          -595 -125 rmoveto
          -70 -58 -59 -74 -73 58 -59 70 71 58 59 73 74 -58 59 -71 hvcurveto
          endchar
        </CharString>
        <CharString name="dieresistonosgreek">
          552 1291 rmoveto
          71 58 59 73 72 -58 59 -71 -70 -58 -59 -72 -73 58 -59 70 hvcurveto
          672 hmoveto
          23 callgsubr
          -481 -9 99 callsubr
          endchar
        </CharString>
        <CharString name="divide">
          1242 541 rmoveto
          34 200 rlineto
          -1032 hlineto
          -34 -200 rlineto
          584 331 rmoveto
          88 61 62 88 87 -61 62 -88 -86 -62 -62 -87 -88 62 -62 86 hvcurveto
          -102 -760 rmoveto
          88 61 61 87 88 -61 62 -88 -86 -62 -62 -88 -87 62 -61 86 hvcurveto
          endchar
        </CharString>
        <CharString name="djecyrillic">
          543 911 rmoveto
          63 352 rlineto
          257 hlineto
          22 131 rlineto
          -256 hlineto
          22 124 141 callsubr
          -22 -124 rlineto
          -141 hlineto
          -22 -131 rlineto
          140 hlineto
          -222 -1263 rlineto
          232 hlineto
          114 645 rlineto
          168 30 113 98 140 hhcurveto
          124 84 -83 -117 -27 -4 -33 -6 -35 hvcurveto
          -62 -350 rlineto
          -4 hlineto
          -51 -309 rlineto
          -100 -18 -58 -44 -113 hhcurveto
          -10 -13 1 1 -5 hvcurveto
          -32 -184 rlineto
          -2 9 30 -2 19 hhcurveto
          240 147 112 212 36 hvcurveto
          8 49 rlineto
          1 hlineto
          111 638 rlineto
          10 61 5 40 36 vvcurveto
          205 -137 135 -207 -148 -125 -79 -125 -61 vhcurveto
          endchar
        </CharString>
        <CharString name="dlinebelow">
          -96 callgsubr
          165 -1321 19 callsubr
          -28 -165 rlineto
          endchar
        </CharString>
        <CharString name="dollar">
          801 608 rmoveto
          158 -61 55 -58 -102 vvcurveto
          -135 -119 -95 -175 -7 vhcurveto
          -1 709 rmoveto
          -130 56 -55 65 93 vvcurveto
          123 105 87 157 9 vhcurveto
          513 -234 rmoveto
          1 6 1 22 12 vvcurveto
          180 -149 146 -210 41 vhcurveto
          21 119 rlineto
          -126 hlineto
          -19 -107 rlineto
          -303 -1 -213 -175 -248 vvcurveto
          -185 108 -128 232 -82 vhcurveto
          30 -10 -86 -487 rlineto
          -133 28 -84 83 112 3 1 8 8 vvcurveto
          -210 hlineto
          -1 -4 -1 -28 -13 vvcurveto
          -192 163 -151 233 -39 vhcurveto
          -21 -117 rlineto
          126 hlineto
          19 107 rlineto
          323 1 221 181 262 vvcurveto
          187 -103 121 -238 82 vhcurveto
          -53 17 81 463 rlineto
          107 -29 71 -80 -98 vvcurveto
          -15 vlineto
          endchar
        </CharString>
        <CharString name="dotaccent">
          886 1289 -20 callsubr
        </CharString>
        <CharString name="dotaccentcmb">
          886 1289 -20 callsubr
        </CharString>
        <CharString name="dotaccentcmb.short">
          946 1615 -37 callgsubr
          endchar
        </CharString>
        <CharString name="dotbelowcmb">
          133 callgsubr
          endchar
        </CharString>
        <CharString name="dotlessi">
          1115 hmoveto
          -95 callsubr
          endchar
        </CharString>
        <CharString name="dotlessj">
          1086 1095 -48 callsubr
          endchar
        </CharString>
        <CharString name="dotmacroncmb">
          1285 1725 -56 callsubr
          294 -452 rmoveto
          80 66 67 81 81 -66 68 -80 -79 -66 -68 -81 -81 66 -67 79 hvcurveto
          endchar
        </CharString>
        <CharString name="dotmacroncmb.short">
          925 1844 rmoveto
          179 callsubr
          60 61 76 77 -60 61 -74 hvcurveto
          -309 109 200 callgsubr
        </CharString>
        <CharString name="dzecyrillic">
          343 773 rmoveto
          46 callgsubr
          vhcurveto
          147 -48 rlineto
          -102 callgsubr
          hvcurveto
          endchar
        </CharString>
        <CharString name="dzhecyrillic">
          1322 1095 rmoveto
          -233 hlineto
          -161 -907 rlineto
          -480 hlineto
          161 907 rlineto
          -233 -32 callgsubr
          366 73 callsubr
          214 hlineto
          50 285 rlineto
          366 hlineto
          endchar
        </CharString>
        <CharString name="e">
          936 297 -106 callsubr
        </CharString>
        <CharString name="eacute">
          -78 callgsubr
          -222 999 rmoveto
          89 callgsubr
          -268 hlineto
          -302 -347 rlineto
          endchar
        </CharString>
        <CharString name="ebreve">
          1109 1582 rmoveto
          -53 callsubr
          -29 callgsubr
          -351 -1285 -106 callsubr
        </CharString>
</ttFont>
